<?xml version="1.0" encoding="UTF-8" standalone="no"?>
<svg
   xmlns:dc="http://purl.org/dc/elements/1.1/"
   xmlns:cc="http://creativecommons.org/ns#"
   xmlns:rdf="http://www.w3.org/1999/02/22-rdf-syntax-ns#"
   xmlns:svg="http://www.w3.org/2000/svg"
   xmlns="http://www.w3.org/2000/svg"
   version="1.1"
   id="svg2"
   viewBox="0 0 444.85716 444.85716"
   height="125.54858mm"
   width="125.54858mm">
  <defs
     id="defs4" />
  <metadata
     id="metadata7">
    <rdf:RDF>
      <cc:Work
         rdf:about="">
        <dc:format>image/svg+xml</dc:format>
        <dc:type
           rdf:resource="http://purl.org/dc/dcmitype/StillImage" />
        <dc:title></dc:title>
      </cc:Work>
    </rdf:RDF>
  </metadata>
  <g
     transform="translate(1218.1428,-831.36218)"
     id="layer1">
    <g
       id="text4138"
       style="font-style:normal;font-variant:normal;font-weight:500;font-stretch:normal;font-size:371.70797729px;line-height:125%;font-family:Whois;-inkscape-font-specification:'Whois Medium';text-align:center;writing-mode:lr-tb;text-anchor:middle;opacity:1;fill:none;fill-opacity:1;stroke:#ff0000;stroke-width:27.03330803;stroke-linecap:butt;stroke-linejoin:round;stroke-miterlimit:4;stroke-dasharray:none;stroke-dashoffset:0;stroke-opacity:1">
      <g
         id="g4151">
        <path
           d="m -1155.1897,1110.4027 43.022,0 -21.5741,-73.7502 z m -45.2929,49.8907 56.7738,-179.78389 19.934,0 56.9,179.78389 -27.5038,0 -9.3361,-26.3962 -59.928,0 -9.3361,26.3962 z"
           style="font-style:normal;font-variant:normal;font-weight:bold;font-stretch:normal;font-family:'Anka/Coder';-inkscape-font-specification:'Anka/Coder Bold';fill:#000000;stroke:none;stroke-width:27.03330803"
           id="path4143" />
        <path
           d="m -961.5549,900.20868 q 0,-5.17273 -1.7663,-7.56985 -1.7663,-2.39712 -8.95765,-3.78492 -7.19136,-1.38781 -22.20491,-1.38781 l -27.88234,0 0,39.99404 27.88234,0 q 9.33616,0 15.64437,-1.00932 6.3082,-1.00931 9.71464,-2.39712 3.40643,-1.51397 5.04656,-4.28957 1.7663,-2.77562 2.1448,-5.04658 0.37849,-2.27095 0.37849,-6.3082 l 0,-8.20067 z m 8.453,75.95083 q 0,-5.8035 -1.64014,-9.8408 -1.51397,-4.0373 -4.16342,-6.4344 -2.64944,-2.39708 -7.06519,-3.65878 -4.41574,-1.3878 -9.08382,-1.7663 -4.54191,-0.5046 -11.10245,-0.5046 l -36.20918,0 0,57.15227 36.20918,0 q 8.70533,0 15.13971,-1.2615 6.43437,-1.2617 9.71464,-3.028 3.40643,-1.7663 5.29889,-4.2896 2.01862,-2.6495 2.39712,-4.6681 0.50466,-2.0186 0.50466,-4.4157 l 0,-17.28449 z m 26.49447,17.28449 q 0,2.5233 -0.25233,5.0465 -0.25233,2.5233 -1.51397,7.1914 -1.26164,4.542 -3.5326,8.5792 -2.14479,3.911 -6.6867,8.453 -4.54191,4.4157 -10.59778,7.5698 -6.05589,3.1541 -15.64436,5.2989 -9.46231,2.0186 -21.32175,2.0186 l -62.70368,0 0,-176.62978 54.37684,0 q 10.09315,0 17.66299,0.75699 7.56985,0.63082 15.77052,3.02794 8.32684,2.39712 13.62573,6.56054 5.42506,4.16342 8.83149,11.48093 3.5326,7.31753 3.5326,17.41066 l 0,8.20067 q 0,18.67229 -9.08382,29.64858 17.53682,12.7426 17.53682,38.10158 l 0,17.28449 z"
           style="font-style:normal;font-variant:normal;font-weight:bold;font-stretch:normal;font-family:'Anka/Coder';-inkscape-font-specification:'Anka/Coder Bold';fill:#ff0000;stroke:none;stroke-width:27.03330803"
           id="path4145" />
        <path
           d="m -850.20143,1220.9957 -3.91109,0 q -5.80355,0 -11.35478,-1.0093 -5.42506,-0.8831 -11.73326,-3.5326 -6.30821,-2.6494 -11.73327,-6.8129 -5.42506,-4.1634 -10.59779,-11.1024 -5.04657,-7.0652 -8.70533,-16.149 -3.53259,-9.0838 -5.67738,-22.0787 -2.1448,-13.1211 -2.1448,-28.7654 l 0,-7.8222 q 0,-85.6655 61.82044,-85.6655 l 4.03726,0 q 20.94324,0 35.45212,9.9669 14.50888,9.8409 21.06942,30.1533 l -25.23283,8.0745 q -3.65876,-11.481 -11.10245,-16.5275 -7.31752,-5.1727 -20.18626,-5.1727 l -4.03726,0 q -18.2938,0 -26.87296,13.3734 -8.453,13.2472 -8.453,45.7976 l 0,7.8222 q 0,62.9559 35.45213,62.9559 l 3.91109,0 q 10.59778,0 17.78914,-5.0466 7.31753,-5.1728 11.6071,-17.4107 l 24.98051,8.5792 q -6.68671,19.1769 -20.31243,29.7747 -13.62573,10.5978 -34.06432,10.5978 z"
           style="font-style:normal;font-variant:normal;font-weight:bold;font-stretch:normal;font-family:'Anka/Coder';-inkscape-font-specification:'Anka/Coder Bold';fill:#000000;stroke:none;stroke-width:27.03330803"
           id="path4147" />
      </g>
    </g>
  </g>
</svg>
