<?xml version="1.0" standalone="no"?>
<!DOCTYPE svg PUBLIC "-//W3C//DTD SVG 20010904//EN"
 "http://www.w3.org/TR/2001/REC-SVG-20010904/DTD/svg10.dtd">
<svg version="1.0" xmlns="http://www.w3.org/2000/svg"
 width="326.000000pt" height="290.000000pt" viewBox="0 0 326.000000 290.000000"
 preserveAspectRatio="xMidYMid meet">
<metadata>
Created by potrace 1.11, written by Peter Selinger 2001-2013
</metadata>
<g transform="translate(0.000000,290.000000) scale(0.100000,-0.100000)"
fill="#000000" stroke="none">
<path d="M1211 2185 c0 -533 3 -705 12 -706 53 -4 572 0 608 5 76 9 173 44
220 78 111 80 139 147 140 339 1 176 -22 257 -97 334 l-36 38 20 41 c33 69 43
112 46 198 5 180 -41 277 -157 328 -90 40 -175 49 -474 50 l-282 1 0 -706z
m609 482 c77 -14 88 -31 88 -138 0 -83 -1 -88 -29 -117 -39 -39 -98 -50 -299
-51 l-155 -2 1 153 c1 84 2 156 3 160 1 7 346 3 391 -5z m25 -530 c66 -16 109
-52 124 -103 4 -16 8 -79 7 -141 -1 -103 -3 -113 -25 -137 -49 -52 -96 -61
-321 -61 l-205 0 0 215 c-1 118 1 220 2 226 4 10 375 11 418 1z"/>
<path d="M451 1920 c-7 -12 -44 -128 -57 -175 -2 -5 -34 -109 -73 -230 -38
-121 -108 -344 -156 -495 -48 -151 -104 -329 -126 -394 -21 -66 -36 -122 -33
-125 3 -3 52 -6 110 -7 l104 -1 19 51 c10 28 26 74 35 102 13 39 23 53 39 56
12 2 120 4 241 3 l218 0 20 -55 c11 -30 28 -77 39 -105 l19 -50 110 -1 c61 -1
110 0 110 1 0 1 -11 36 -24 76 -13 41 -45 142 -71 224 -25 83 -67 213 -92 290
-24 77 -46 147 -48 155 -2 8 -29 94 -60 190 -31 96 -68 213 -82 260 -14 47
-29 94 -34 105 -4 11 -16 46 -25 78 -10 31 -22 58 -28 58 -6 1 -42 2 -79 3
-53 1 -70 -2 -76 -14z m105 -519 c3 -14 7 -28 10 -33 3 -4 7 -16 9 -25 2 -10
31 -110 64 -223 34 -113 61 -210 61 -215 0 -6 -61 -10 -165 -10 -112 0 -165 3
-165 11 0 6 27 105 61 220 110 381 100 352 111 324 5 -14 12 -36 14 -49z"/>
<path d="M2758 1475 c-2 -1 -33 -5 -69 -8 -165 -14 -298 -126 -360 -304 -56
-158 -70 -425 -35 -678 17 -125 81 -266 157 -344 86 -89 190 -130 329 -129
158 0 251 35 340 128 54 55 125 178 112 192 -7 6 -179 68 -192 68 -3 0 -12
-15 -18 -34 -17 -47 -70 -102 -117 -121 -21 -9 -71 -18 -111 -20 -148 -5 -233
69 -279 244 -9 34 -18 83 -21 109 -7 66 -6 320 1 362 30 183 62 246 150 293
55 30 231 32 285 3 50 -26 79 -55 102 -101 11 -22 22 -42 24 -44 6 -7 194 61
194 71 0 6 -14 38 -31 73 -53 107 -139 180 -255 214 -59 17 -196 35 -206 26z"/>
</g>
</svg>
