<?xml version="1.0" standalone="no"?>
<!DOCTYPE svg PUBLIC "-//W3C//DTD SVG 1.1//EN" "http://www.w3.org/Graphics/SVG/1.1/DTD/svg11.dtd" >
<svg xmlns="http://www.w3.org/2000/svg">
<metadata></metadata>
<defs>
<font id="ankacoderbold" horiz-adv-x="1229" >
<font-face units-per-em="2048" ascent="1638" descent="-410" />
<missing-glyph horiz-adv-x="500" />
<glyph horiz-adv-x="0" />
<glyph unicode="&#xd;" />
<glyph unicode=" " />
<glyph unicode="!" d="M420 59q0 79 54.5 137t139.5 58q84 0 139.5 -57.5t55.5 -137.5q0 -79 -55.5 -137t-139.5 -58q-82 0 -138 57.5t-56 137.5zM485 1256q0 77 38.5 125t88.5 48q54 0 95.5 -48t41.5 -126l-33 -822h-198z" />
<glyph unicode="&#x22;" d="M196 1066q0 10 5 25l70 271q12 41 53.5 71.5t89.5 30.5q61 0 95 -40.5t34 -98.5q0 -46 -14 -70l-135 -245q-12 -21 -41 -35.5t-58 -14.5q-45 0 -72 34t-27 72zM686 1066q0 10 5 25l70 271q12 41 53.5 71.5t89.5 30.5q61 0 95 -40.5t34 -98.5q0 -46 -14 -70l-135 -245 q-12 -21 -41 -35.5t-58 -14.5q-45 0 -72 34t-27 72z" />
<glyph unicode="#" d="M60 311l41 210h155l68 347h-156l41 210h156l53 272h214l-53 -272h228l53 272h214l-53 -272h155l-41 -210h-155l-67 -347h155l-41 -210h-155l-61 -311h-214l61 311h-229l-61 -311h-214l61 311h-155zM470 521h229l67 347h-228z" />
<glyph unicode="$" d="M40 338h210q4 -37 36 -66t78.5 -45t81.5 -24t65 -12v476l-120 42q-126 44 -189 117.5t-63 206.5v27q0 143 100 239t272 119v76h210v-74q202 -18 307 -117t105 -243h-210q0 123 -202 149v-393l97 -33q158 -54 241 -165t83 -240v-28q0 -122 -111 -229t-310 -137v-77h-210 v73q-392 38 -455 247q-13 41 -16 111zM349 1033q0 -53 30.5 -81t79.5 -45l52 -18v317q-74 -14 -118 -51t-44 -95v-27zM721 196q100 21 155.5 69t55.5 85v28q0 64 -48.5 119.5t-137.5 87.5l-25 9v-398z" />
<glyph unicode="%" d="M42 125l981 1279l166 -128l-981 -1279zM47 1141q0 117 78.5 198t192.5 81q115 0 191 -81.5t76 -197.5t-77 -199t-190 -83q-114 0 -192.5 82t-78.5 200zM231 1142q0 -29 24 -66.5t61 -37.5q44 0 64.5 31.5t20.5 72.5q0 44 -21.5 71.5t-63.5 27.5q-37 0 -61 -34.5 t-24 -64.5zM647 271q0 117 78.5 198t192.5 81q115 0 191 -81.5t76 -197.5t-77 -199t-190 -83q-114 0 -192.5 82t-78.5 200zM831 272q0 -29 24 -66.5t61 -37.5q44 0 64.5 31.5t20.5 72.5q0 43 -21.5 71t-63.5 28q-37 0 -61 -34.5t-24 -64.5z" />
<glyph unicode="&#x26;" d="M40 350v28q0 70 36.5 135t85 108.5t121.5 92.5l113 76q-26 35 -52.5 76.5t-59.5 121.5t-33 141v20q0 32 10.5 67t37 73t65 67.5t101 49t139.5 19.5h26q29 0 60 -3.5t76 -12.5t84 -29t74 -49t55.5 -77.5t20.5 -109.5v-53q0 -66 -61 -147.5t-118 -120.5l-120 -81l240 -303 l131 203l176 -114l-170 -263l147 -186l-164 -130l-114 144q-137 -118 -350 -118h-24q-31 0 -67 3t-89.5 12.5t-102.5 25.5t-100.5 45t-88.5 67t-61 95.5t-24 126.5zM251 350q0 -41 31.5 -73.5t80.5 -52t103.5 -29.5t106.5 -10h24q138 0 219 74l-289 366l-115 -78 q-79 -53 -120 -97.5t-41 -71.5v-28zM461 1099q0 -7 8.5 -30.5t36 -69.5t65.5 -91l132 89q32 21 59.5 53.5t27.5 50.5v33q0 31 -40.5 56t-119.5 25h-26q-79 0 -111 -29.5t-32 -66.5v-20z" />
<glyph unicode="'" d="M440 1066v25l78 271q8 40 50 71t92 31q60 0 95 -41t35 -98q0 -45 -15 -70l-138 -245q-11 -21 -39.5 -35.5t-59.5 -14.5q-45 0 -71.5 34t-26.5 72z" />
<glyph unicode="(" d="M361 708q0 116 33 227t88 202t131.5 174t157.5 145.5t171 114.5l104 -182q-211 -122 -343 -298.5t-132 -382.5q0 -101 39 -202t109 -190t152.5 -165t182.5 -145l-120 -172q-125 87 -226 182.5t-180.5 205.5t-123 234.5t-43.5 251.5z" />
<glyph unicode=")" d="M176 7q100 69 183 144.5t153 164.5t109.5 190t39.5 202q0 106 -37 207t-103 186.5t-151 157.5t-187 130l104 182q91 -52 172.5 -115t158 -145.5t132 -173.5t88.5 -202t33 -227q0 -127 -44 -251.5t-124 -234.5t-181.5 -206t-227.5 -183z" />
<glyph unicode="*" d="M163 713q0 19 5 33q10 32 38 52t62 20q19 0 33 -5l209 -68v220q0 43 31 74t74 31t74 -31t31 -74v-220l209 68q14 5 33 5q34 0 62 -20t38 -52q5 -14 5 -33q0 -34 -20 -62t-52 -38l-210 -68l130 -178q20 -27 20 -62q0 -54 -43 -85q-27 -20 -62 -20q-54 0 -85 43l-130 179 l-130 -179q-31 -43 -85 -43q-35 0 -62 20q-43 31 -43 85q0 35 20 62l130 178l-210 68q-32 10 -52 38t-20 62z" />
<glyph unicode="+" d="M234 489v210h276v302h210v-302h276v-210h-276v-307h-210v307h-276z" />
<glyph unicode="," d="M420 56q0 79 54.5 137.5t139.5 58.5q84 0 139.5 -57.5t55.5 -138.5q0 -354 -341 -390l-20 74q45 17 83.5 49t38.5 70q0 17 -11.5 40.5t-25.5 27.5q-38 11 -75.5 49t-37.5 80z" />
<glyph unicode="-" d="M234 489v210h762v-210h-762z" />
<glyph unicode="." d="M420 59q0 79 54.5 137t139.5 58q84 0 139.5 -57.5t55.5 -137.5q0 -79 -55.5 -137t-139.5 -58q-82 0 -138 57.5t-56 137.5zM618 -30v-10h2v6h4v-6h2v14h-6zM620 -30l1 2h3v-4h-4v2zM628 -30v-10h2v8h2v-8h2v8l-1 2h-5zM636 -30v-10h2v8h2v-8h2v8l-1 2h-5zM642 -48v-4l1 -2 h5v-4h-6v-2h7l1 2v4l-1 2h-5v4h6v2h-7zM644 -30v-2h4v-2h-3l-1 -2v-2l1 -2h5v8l-1 2h-5zM646 -36h2v-2h-2v2zM652 -46v-14h2v8h2v-8h2v8l-1 2h-3v4h-2zM660 -50v-8l1 -2h5v10h-2v-8h-2v8h-2zM668 -52v-6l1 -2h3v-2h-4v-2h5l1 2v12h-5zM670 -52h2v-6h-2v6zM676 -52v-6l1 -2h4 l1 2v6l-1 2h-4zM678 -52h2v-6h-2v6zM684 -46v-14h4v2h-2v12h-2z" />
<glyph unicode="/" d="M142 24l759 1450l186 -98l-759 -1450z" />
<glyph unicode="0" d="M17 178l143 166q-44 155 -44 373q0 102 8.5 185.5t29 166.5t57.5 145.5t91 111t133.5 74t180.5 25.5q232 0 356 -138l138 161l99 -207l-133 -154q43 -146 43 -370q0 -130 -12.5 -233.5t-46.5 -201.5t-89 -163.5t-145 -104.5t-210 -39q-232 0 -357 163l-137 -159zM326 717 q0 -88 8 -170l497 577q-65 91 -215 91q-104 0 -165 -42.5t-93 -152t-32 -303.5zM402 304q70 -119 214 -119q103 0 164.5 45t95 163t33.5 324q0 98 -7 167z" />
<glyph unicode="1" d="M457 1124l249 301h149v-1425h-210v1131l-129 -80z" />
<glyph unicode="2" d="M130 0v209q8 59 74 145t132 141l486 396q32 27 49.5 70t17.5 63v37q0 48 -23 81t-64.5 47.5t-82 20t-92.5 5.5h-23q-54 0 -96 -6t-67.5 -14.5t-46 -24t-30.5 -28t-23 -32.5l-178 112q67 106 168.5 154.5t272.5 48.5h23q112 0 199 -24.5t137 -62t82 -88t43 -96.5t11 -95 v-35q0 -59 -34.5 -146t-108.5 -149l-486 -396q-53 -44 -92 -123h721v-210h-969z" />
<glyph unicode="3" d="M130 320h210q0 -50 64 -92.5t200 -42.5h23q145 0 203.5 66t58.5 192v18q0 108 -58 165t-201 58h-230v210h230q77 0 137.5 50.5t60.5 105.5v37q0 128 -201 128h-23q-97 0 -164.5 -29t-88.5 -65l-180 106q57 97 176 147.5t257 50.5h23q93 0 166.5 -22.5t118 -57.5t74 -81 t41 -89.5t11.5 -87.5v-37q0 -14 -4 -36.5t-13.5 -57t-32.5 -73t-56 -69.5q167 -113 167 -353v-18q0 -101 -27.5 -184.5t-83.5 -148t-148 -100t-213 -35.5h-23q-106 0 -191 23t-136.5 58.5t-85.5 82.5t-47.5 91.5t-13.5 89.5z" />
<glyph unicode="4" d="M131 328v182l718 915h158v-887h153v-210h-153v-328h-210v328h-666zM420 538h377v480z" />
<glyph unicode="5" d="M60 219l197 83q34 -46 111.5 -81.5t167.5 -35.5h91q130 0 196 61t66 206v56q0 241 -262 241h-23q-60 0 -128.5 -36.5t-105.5 -100.5l-207 101l107 687h798v-210h-618l-44 -277q101 46 198 46h23q116 0 207 -35t148.5 -96.5t87 -142.5t29.5 -177v-56q0 -232 -126 -354.5 t-346 -122.5h-91q-148 0 -283.5 67.5t-192.5 176.5z" />
<glyph unicode="6" d="M130 433v511q0 210 128 345.5t346 135.5h23q49 0 86.5 -2t91 -11t94.5 -24.5t82.5 -46t68.5 -72.5l-176 -114q-34 60 -247 60h-23q-75 0 -129.5 -24.5t-82.5 -66t-40 -86t-12 -94.5v-52q112 67 264 67h23q216 0 344 -118t128 -352v-56q0 -91 -27.5 -171t-82 -145.5 t-148 -103.5t-214.5 -38h-23q-206 0 -340 121.5t-134 336.5zM340 433q0 -57 16 -101.5t41.5 -71.5t61 -44.5t70.5 -24t75 -6.5h23q262 0 262 248v56q0 143 -65.5 201.5t-196.5 58.5h-23q-61 0 -108.5 -16t-76 -41t-47 -60t-25.5 -69.5t-7 -73.5v-56z" />
<glyph unicode="7" d="M130 1190v210h969v-215q-253 -348 -407 -623.5t-232 -561.5h-217q75 301 223 582.5t378 607.5h-714z" />
<glyph unicode="8" d="M130 404v48q0 238 167 357q-103 108 -103 252v47q0 78 34.5 138t83.5 92.5t110 53.5t104.5 27t77.5 6h23q93 0 167 -22t118.5 -55.5t74 -77t40.5 -84t11 -79.5v-47q0 -140 -98 -246q159 -109 159 -362v-48q0 -86 -30 -163t-87.5 -136.5t-149 -94.5t-205.5 -35h-23 q-203 0 -338.5 119.5t-135.5 309.5zM340 404q0 -60 25 -104.5t65.5 -68t84 -35t89.5 -11.5h23q120 0 191 60.5t71 158.5v48q0 107 -57.5 169t-201.5 63h-28q-262 -1 -262 -232v-48zM404 1061q0 -65 54 -116t144 -51h28q90 0 144 51t54 115v32q0 16 -7.5 34t-27 39.5 t-62.5 35.5t-104 14h-23q-83 0 -141.5 -37t-58.5 -85v-32z" />
<glyph unicode="9" d="M130 901v90q0 86 31.5 164t89.5 138.5t149.5 96t203.5 35.5h23q209 0 340.5 -119t131.5 -315v-554q0 -78 -17 -146t-54 -126.5t-91.5 -100t-133.5 -65.5t-176 -24h-23q-49 0 -87.5 2t-92 11.5t-94.5 26t-82.5 48t-67.5 74.5l180 110q38 -62 244 -62h23q144 0 203 66 t59 186v63q-106 -54 -262 -54h-23q-218 0 -346 124.5t-128 330.5zM340 901q0 -111 62.5 -178t201.5 -67h23q143 0 202.5 57.5t59.5 187.5v90q0 64 -24 110t-64.5 69.5t-83.5 34t-90 10.5h-23q-129 0 -196.5 -63t-67.5 -161v-90z" />
<glyph unicode=":" d="M420 199q0 79 54.5 137t139.5 58q84 0 139.5 -57.5t55.5 -137.5q0 -79 -55.5 -137t-139.5 -58q-82 0 -138 57.5t-56 137.5zM420 917q0 79 54.5 137t139.5 58q84 0 139.5 -57.5t55.5 -137.5q0 -79 -55.5 -137t-139.5 -58q-82 0 -138 57.5t-56 137.5zM618 100h2v6h4v-6h2 v14h-6l-2 -4v-10zM618 818h2v6h4v-6h2v14h-6l-2 -4v-10zM620 108v2l1 2h3v-4h-4zM620 826v2l1 2h3v-4h-4zM628 100h2v8h2v-8h2v8l-1 2h-5v-10zM628 818h2v8h2v-8h2v8l-1 2h-5v-10zM636 100h2v8h2v-8h2v8l-1 2h-5v-10zM636 818h2v8h2v-8h2v8l-1 2h-5v-10zM642 80h7l1 2v4 l-1 2h-5v4h6v2h-7l-1 -2v-4l1 -2h5v-4h-6v-2zM642 798h7l1 2v4l-1 2h-5v4h6v2h-7l-1 -2v-4l1 -2h5v-4h-6v-2zM644 102l1 -2h5v8l-1 2h-5v-2h4v-2h-3l-1 -2v-2zM644 820l1 -2h5v8l-1 2h-5v-2h4v-2h-3l-1 -2v-2zM646 102v2h2v-2h-2zM646 820v2h2v-2h-2zM652 80h2v8h2v-8h2v8 l-1 2h-3v4h-2v-14zM652 798h2v8h2v-8h2v8l-1 2h-3v4h-2v-14zM660 82l1 -2h5v10h-2v-8h-2v8h-2v-8zM660 800l1 -2h5v10h-2v-8h-2v8h-2v-8zM668 76h5l1 2v12h-5l-1 -2v-6l1 -2h3v-2h-4v-2zM668 794h5l1 2v12h-5l-1 -2v-6l1 -2h3v-2h-4v-2zM670 82v6h2v-6h-2zM670 800v6h2v-6 h-2zM676 82l1 -2h4l1 2v6l-1 2h-4l-1 -2v-6zM676 800l1 -2h4l1 2v6l-1 2h-4l-1 -2v-6zM678 82v6h2v-6h-2zM678 800v6h2v-6h-2zM684 80h4v2h-2v12h-2v-14zM684 798h4v2h-2v12h-2v-14z" />
<glyph unicode=";" d="M420 56q0 79 54.5 137.5t139.5 58.5q84 0 139.5 -57.5t55.5 -138.5q0 -354 -341 -390l-20 74q45 17 83.5 49t38.5 70q0 17 -11.5 40.5t-25.5 27.5q-38 11 -75.5 49t-37.5 80zM420 859q0 79 54.5 137t139.5 58q84 0 139.5 -57.5t55.5 -137.5q0 -79 -55.5 -137t-139.5 -58 q-82 0 -138 57.5t-56 137.5zM618 760h2v6h4v-6h2v14h-6l-2 -4v-10zM620 768v2l1 2h3v-4h-4zM628 760h2v8h2v-8h2v8l-1 2h-5v-10zM636 760h2v8h2v-8h2v8l-1 2h-5v-10zM642 740h7l1 2v4l-1 2h-5v4h6v2h-7l-1 -2v-4l1 -2h5v-4h-6v-2zM644 762l1 -2h5v8l-1 2h-5v-2h4v-2h-3 l-1 -2v-2zM646 762v2h2v-2h-2zM652 740h2v8h2v-8h2v8l-1 2h-3v4h-2v-14zM660 742l1 -2h5v10h-2v-8h-2v8h-2v-8zM668 736h5l1 2v12h-5l-1 -2v-6l1 -2h3v-2h-4v-2zM670 742v6h2v-6h-2zM676 742l1 -2h4l1 2v6l-1 2h-4l-1 -2v-6zM678 742v6h2v-6h-2zM684 740h4v2h-2v12h-2v-14z " />
<glyph unicode="&#x3c;" d="M272 479v230l687 450v-251l-480 -314l480 -315v-251z" />
<glyph unicode="=" d="M234 303v210h762v-210h-762zM234 715v210h762v-210h-762z" />
<glyph unicode="&#x3e;" d="M272 27v251l481 316l-481 315v251l687 -450v-232z" />
<glyph unicode="?" d="M130 1091q1 46 12.5 88t43.5 88.5t82.5 80t137 55.5t198.5 22h23q218 0 345 -85.5t127 -250.5v-65q0 -93 -35 -161t-107 -130l-175 -151q-57 -50 -61 -99v-131h-210v131q0 16 5 39.5t17 61t41.5 80t71.5 78.5l175 151q68 59 68 131v65q0 66 -73 96t-189 30h-23 q-32 0 -65 -3.5t-83.5 -14.5t-82.5 -39.5t-33 -70.5zM446 9q0 69 47 119t121 50q73 0 121 -49.5t48 -119.5q0 -69 -48 -119t-121 -50q-71 0 -119.5 50t-48.5 119z" />
<glyph unicode="@" d="M0 717q0 155 45 287t125.5 224.5t195 144.5t250.5 52q110 0 198.5 -12t147 -31.5t101.5 -48.5t66.5 -57t37 -64t17 -63t3.5 -59v-738h-210v16q-77 -32 -158 -32q-146 0 -243 114.5t-97 268.5t92 262.5t247 108.5h154q0 71 -91 98t-265 27q-185 0 -296 -140t-111 -358 q0 -132 36 -236.5t95 -167.5t129.5 -95.5t146.5 -32.5q237 0 316 57l124 -170q-38 -27 -97 -47t-116.5 -29t-109.5 -14.5t-85 -5.5l-32 -1q-121 0 -231 50t-196.5 142t-137.5 234.5t-51 315.5zM689 704q0 -89 35 -123.5t97 -34.5q55 0 105.5 31.5t50.5 53.5v249h-30 q-148 -1 -203 -35t-55 -141z" />
<glyph unicode="A" d="M87 0l450 1425h158l451 -1425h-218l-74 233h-475l-74 -233h-218zM446 443h341l-171 537z" />
<glyph unicode="B" d="M130 0v1400h431q80 0 140 -5.5t125.5 -24.5t108 -52t70 -91t27.5 -138v-65q0 -148 -72 -235q139 -101 139 -302v-137q0 -20 -2 -40t-12 -56.5t-27.5 -68t-53.5 -67t-84 -60.5t-123.5 -41.5t-169.5 -16.5h-497zM340 210h287q69 0 120 10t77.5 24t42 34.5t19 36.5t3.5 35 v137q0 46 -12.5 78t-33.5 51t-56 29.5t-71.5 14t-88.5 3.5h-287v-453zM340 873h221q74 0 124 8t77 19.5t40.5 33.5t16.5 40t3 50v65q0 41 -14 60t-71 30t-176 11h-221v-317z" />
<glyph unicode="C" d="M130 684v62q0 679 490 679h32q166 0 281 -78.5t167 -239.5l-200 -64q-29 91 -87.5 131.5t-160.5 40.5h-32q-145 0 -212.5 -105.5t-67.5 -363.5v-62q0 -499 281 -499h31q84 0 141.5 40.5t91.5 137.5l198 -68q-53 -152 -161 -236t-270 -84h-31q-46 0 -89.5 7.5t-93.5 28.5 t-93 54t-83.5 88.5t-69 127.5t-45.5 175.5t-17 227.5z" />
<glyph unicode="D" d="M130 0v1400h472q116 0 204 -32.5t143 -88.5t89.5 -139.5t47.5 -175.5t13 -207v-97q0 -116 -17.5 -212.5t-46 -163.5t-69.5 -118.5t-84.5 -82t-94 -50t-95 -26.5t-90.5 -7h-472zM340 210h262q28 0 52 3.5t54.5 14.5t54.5 30t48.5 53.5t41 80.5t26.5 114.5t10 153.5v97 q0 169 -30.5 263.5t-91 132t-165.5 37.5h-262v-980z" />
<glyph unicode="E" d="M130 0v1400h969v-210h-759v-317h598v-210h-598v-452h759v-211h-969z" />
<glyph unicode="F" d="M130 -25v1425h969v-210h-759v-317h598v-210h-598v-688h-210z" />
<glyph unicode="G" d="M130 684v62q0 679 497 679h25q166 0 281 -78.5t167 -239.5l-200 -64q-29 91 -87.5 131.5t-160.5 40.5h-25q-97 0 -158.5 -43.5t-95 -148t-33.5 -277.5v-62q0 -69 6 -130.5t24.5 -132t49 -120.5t83.5 -83t124 -33h25q90 0 150.5 34.5t86.5 78.5v207h-214v210h424v-460 q-26 -68 -70.5 -120t-91.5 -81.5t-102 -48t-98 -24.5t-85 -6h-25q-46 0 -90.5 8t-95 29.5t-94 55.5t-84.5 89.5t-69.5 127.5t-46 174.5t-17.5 224.5z" />
<glyph unicode="H" d="M130 0v1400h210v-578h549v578h210v-1400h-210v612h-549v-612h-210z" />
<glyph unicode="I" d="M230 0v210h281v980h-281v210h769v-210h-278v-980h278v-210h-769z" />
<glyph unicode="J" d="M100 187l192 86q13 -29 30 -46t57 -29.5t103 -12.5h23q52 0 90 16.5t57 45t27 58t8 63.5v822h-283v210h695v-210h-202v-822q0 -173 -107.5 -283t-284.5 -110h-23q-144 0 -238 51t-144 161z" />
<glyph unicode="K" d="M129 0v1400h210v-631l553 631h280l-538 -613l555 -787h-257l-440 625l-153 -174v-451h-210z" />
<glyph unicode="L" d="M130 0v1400h210v-1189h759v-211h-969z" />
<glyph unicode="M" d="M66 0l143 1400h216l191 -658l189 658h216l143 -1400h-211l-87 852l-179 -620h-142l-180 622l-88 -854h-211z" />
<glyph unicode="N" d="M130 0v1400h179l580 -946v946h210v-1400h-178l-581 948v-948h-210z" />
<glyph unicode="O" d="M130 684v62q0 94 8 173t27.5 159t55 140.5t87 108.5t127.5 73t173 25h17q97 0 173.5 -25.5t127.5 -73.5t86 -108.5t53.5 -140.5t26 -157.5t7.5 -171.5v-64q0 -128 -16.5 -233.5t-44 -177.5t-67 -127t-80 -86.5t-89.5 -51.5t-90.5 -26.5t-86.5 -6.5h-16q-45 0 -87 6.5 t-91.5 26.5t-91 52t-81 87t-67 127t-44.5 177t-17 233zM340 684q0 -252 65.5 -375.5t203.5 -123.5h16q137 1 200.5 123.5t63.5 375.5v64q0 177 -27 279t-83.5 145t-153.5 43h-17q-97 0 -154 -43t-85.5 -146t-28.5 -280v-62z" />
<glyph unicode="P" d="M130 0v1400h497q135 0 227.5 -21.5t146 -66.5t76 -105.5t22.5 -146.5v-74q0 -191 -114 -297.5t-358 -106.5h-287v-582h-210zM340 792h287q105 0 163.5 23t78.5 63t20 108v74q0 49 -17.5 74.5t-75 40.5t-169.5 15h-287v-398z" />
<glyph unicode="Q" d="M130 684v62q0 94 8 173t27.5 159t55 140.5t87 108.5t127.5 73t173 25h17q97 0 173.5 -25.5t127.5 -73.5t86 -108.5t53.5 -140.5t26 -157.5t7.5 -171.5v-64q0 -395 -153 -572l135 -197l-174 -118l-137 199q-66 -21 -145 -21h-16q-45 0 -87 6.5t-91.5 26.5t-91 52t-81 87 t-67 127t-44.5 177t-17 233zM340 684q0 -252 65.5 -375.5t203.5 -123.5h16h16l-112 163l174 118l116 -169q70 121 70 387v64q0 177 -27 279t-83.5 145t-153.5 43h-17q-97 0 -154 -43t-85.5 -146t-28.5 -280v-62z" />
<glyph unicode="R" d="M130 0v1400h497q135 0 227.5 -21.5t146 -66.5t76 -105.5t22.5 -146.5v-117q0 -21 -2 -41.5t-9 -50.5t-19 -56t-35 -56t-53.5 -53t-77 -43t-104.5 -31l404 -612h-251l-395 598h-217v-598h-210zM340 808h287q107 0 165 16t77.5 43.5t19.5 75.5v117q0 25 -4 41.5t-19 35 t-42.5 29t-77 17.5t-119.5 7h-287v-382z" />
<glyph unicode="S" d="M128 368h210q0 -64 75.5 -123.5t190.5 -59.5h23q49 0 90 10t67 26t46.5 35.5t31 39.5t17.5 36t9 26l1 10v28q0 123 -134 170l-356 125q-54 19 -94 55t-60.5 72.5t-32.5 82t-14.5 74.5t-2.5 58v27q0 64 28.5 128t79.5 117t132.5 86.5t177.5 33.5h9q168 0 281.5 -56 t163.5 -162l-190 -90q-47 98 -255 98h-9q-55 0 -98 -17t-65.5 -43t-33.5 -50.5t-11 -44.5v-27q0 -48 21.5 -92.5t42.5 -51.5l358 -125q51 -18 95.5 -46t86 -71t66 -107.5t24.5 -143.5v-28q0 -44 -13.5 -92.5t-48 -103t-85.5 -97.5t-136 -71.5t-189 -28.5h-23 q-197 0 -336.5 117.5t-139.5 275.5z" />
<glyph unicode="T" d="M130 1190v210h969v-210h-378v-1190h-210v1190h-381z" />
<glyph unicode="U" d="M130 396v1004h210v-1004q0 -91 67 -151t197 -60h23q130 0 196 59.5t66 151.5v1004h210v-1004q0 -84 -31 -159.5t-89 -134t-149 -93t-203 -34.5h-23q-111 0 -202 34.5t-150 92.5t-90.5 134t-31.5 160z" />
<glyph unicode="V" d="M61 1400h220l335 -1050l337 1050h221l-457 -1425h-202z" />
<glyph unicode="W" d="M73 1400h211l85 -841l174 615h146l174 -616l86 842h211l-143 -1400h-215l-186 660l-187 -660h-215z" />
<glyph unicode="X" d="M76 0l418 700l-418 700h245l295 -495l296 495h245l-418 -700l418 -700h-245l-296 495l-295 -495h-245z" />
<glyph unicode="Y" d="M73 1400h233l310 -645l311 645h233l-439 -911v-514h-210v514z" />
<glyph unicode="Z" d="M130 0v192l703 998h-703v210h969v-196l-699 -993h699v-211h-969z" />
<glyph unicode="[" d="M361 -185v1770h531v-210h-321v-1350h321v-210h-531z" />
<glyph unicode="\" d="M142 1376l186 98l759 -1450l-186 -98z" />
<glyph unicode="]" d="M310 25h351v1350h-351v210h561v-1770h-561v210z" />
<glyph unicode="^" d="M206 1030l313 395h194l313 -395l-164 -130l-246 309l-246 -309z" />
<glyph unicode="_" d="M272 13h687v-210h-687v210z" />
<glyph unicode="`" d="M369 1329q0 59 37 96q38 38 96 38q70 0 117 -52l223 -272q19 -22 19 -63q0 -49 -26 -76q-29 -28 -76 -28q-40 0 -65 19l-273 223q-52 42 -52 115z" />
<glyph unicode="a" d="M130 296v54q0 35 12 73t45.5 82t84 78t137 57t195.5 23h285v14q0 31 -9 55.5t-34.5 51t-81 41t-137.5 14.5h-23q-195 0 -245 -81l-180 108q110 183 425 183h23q111 0 197.5 -25t137 -63t82.5 -89.5t43.5 -98.5t11.5 -96v-677h-210v48q-132 -73 -262 -73h-23 q-113 0 -207 31t-150 79.5t-86.5 103.5t-30.5 107zM340 296q0 -25 11.5 -44t39.5 -34.5t81.5 -24t131.5 -8.5h23q49 0 93 12.5t74 31t52 39t32.5 36t10.5 22.5v127h-285q-64 0 -115 -11t-77 -25t-44 -31t-22.5 -26t-5.5 -13v-51z" />
<glyph unicode="b" d="M130 0v1400h210v-414q111 63 264 63h23q116 0 207.5 -36t148.5 -99t86.5 -144.5t29.5 -177.5v-140q0 -210 -127 -343.5t-345 -133.5h-23q-144 0 -264 79v-54h-210zM340 452q0 -112 77 -189.5t187 -77.5h23q61 0 108 16t75.5 42t46.5 62t25 71.5t7 75.5v140q0 50 -12 91.5 t-40 78t-81.5 57t-128.5 20.5h-23q-140 0 -202 -67.5t-62 -179.5v-140z" />
<glyph unicode="c" d="M130 433v159q0 199 123.5 327.5t350.5 128.5h23q184 0 285.5 -54.5t157.5 -161.5l-192 -84q-49 90 -251 90h-23q-73 0 -125.5 -19t-82 -54t-43 -77.5t-13.5 -95.5v-159q0 -111 75.5 -179.5t188.5 -68.5h23q90 0 158 24.5t93 75.5l190 -92q-51 -105 -165.5 -161.5 t-275.5 -56.5h-23q-199 0 -336.5 129.5t-137.5 328.5z" />
<glyph unicode="d" d="M130 433v159q0 206 127 331.5t347 125.5h23q151 0 262 -62v413h210v-1400h-210v36q-108 -61 -262 -61h-23q-130 0 -238 57.5t-172 163.5t-64 237zM340 433q0 -111 75.5 -179.5t188.5 -68.5h23q262 0 262 248v159q0 50 -12 91.5t-40 78t-81.5 57t-128.5 20.5h-23 q-140 0 -202 -67.5t-62 -179.5v-159z" />
<glyph unicode="e" d="M130 378v271q0 175 126.5 287.5t347.5 112.5h23q221 0 346.5 -112.5t125.5 -287.5v-196h-759v-75q0 -31 15 -63t44.5 -62t83 -49t121.5 -19h23q115 0 175.5 31t77.5 74l196 -76q-43 -111 -158.5 -175t-290.5 -64h-23q-108 0 -199 34.5t-150 91.5t-92 129t-33 148z M340 663h549q-3 50 -27 86t-63.5 55t-81.5 27t-90 8h-23q-47 0 -89 -8t-82 -27t-65 -55t-28 -86z" />
<glyph unicode="f" d="M235 728v210h142v195q0 24 5.5 53.5t27.5 74t57.5 79t103 60t155.5 25.5h24q92 0 182 -53t133 -127l-182 -106q-14 25 -55 50.5t-78 25.5h-24q-33 0 -59 -8t-40.5 -18.5t-24 -23t-12.5 -20.5t-3 -12v-195h314v-210h-314v-728h-210v728h-142z" />
<glyph unicode="g" d="M130 -127q0 95 79 172q-29 32 -45 79.5t-16 91.5v62q0 48 19.5 99.5t47.5 84.5q-85 97 -85 200v43q0 65 23 118t58.5 88t84 61.5t93.5 40.5t92 22.5t75 11t48 2.5h23q159 0 293 -79q91 64 205 64v-210q-28 0 -52 -9q26 -54 26 -110v-43q0 -83 -35.5 -149t-88 -105.5 t-119 -66t-123.5 -36.5t-106 -10h-23q-105 0 -214 45q-10 -9 -21 -31t-11 -31v-62q0 -8 15.5 -29t28.5 -29q100 34 202 34h23q112 0 205.5 -31.5t149.5 -80.5t86.5 -103t30.5 -104v-20q0 -73 -44 -131t-104.5 -89.5t-132 -52.5t-119 -27.5t-72.5 -6.5h-23q-101 0 -184 21 t-135.5 53.5t-88.5 74.5t-51 81.5t-15 76.5v20zM340 -127v-20q0 -3 7 -12.5t26.5 -24.5t47.5 -28t76.5 -22.5t106.5 -9.5h23q70 0 133.5 19t96 41.5t32.5 36.5v14q0 52 -68.5 83.5t-193.5 31.5h-23q-50 0 -95.5 -10.5t-75 -25.5t-51.5 -31t-32 -27.5t-10 -14.5zM340 662 q0 -43 76.5 -100t187.5 -57h23q97 0 179.5 52.5t82.5 104.5v43q0 12 -15.5 32.5t-45 44t-83 40.5t-118.5 17h-23q-99 0 -181.5 -46t-82.5 -88v-43z" />
<glyph unicode="h" d="M130 0v1400h210v-442q127 91 264 91h23q216 0 344 -109.5t128 -262.5v-677h-210v677q0 68 -71 115t-191 47h-23q-53 0 -99.5 -21.5t-75.5 -52.5t-50 -67t-30 -63.5t-9 -42.5v-592h-210z" />
<glyph unicode="i" d="M235 0v210h276v604h-206v210h416v-814h273v-210h-759zM466 1297q0 66 45 111.5t111 45.5t112 -45.5t46 -111.5t-46 -111.5t-112 -45.5t-111 45.5t-45 111.5z" />
<glyph unicode="j" d="M301 -70h210q6 -51 41 -85t84 -34q52 0 90 34.5t38 85.5v883h-333v210h543v-1093q0 -142 -88 -236t-250 -94q-304 0 -335 329zM647 1297q0 66 45 111.5t111 45.5t112 -45.5t46 -111.5t-46 -111.5t-112 -45.5t-111 45.5t-45 111.5z" />
<glyph unicode="k" d="M130 0v1425h210v-802l585 516l138 -158l-417 -368l519 -613h-275l-401 474l-149 -131v-343h-210z" />
<glyph unicode="l" d="M235 0v210h276v980h-276v210h486v-1190h273v-210h-759z" />
<glyph unicode="m" d="M66 0v1024h210v-20q76 39 142 45h15q133 0 212 -81q42 37 83.5 56t62.5 22t51 3h14q136 0 223.5 -79.5t87.5 -208.5v-761h-210v761q0 11 -3.5 22t-12.5 25t-31 22.5t-54 8.5h-14q-44 0 -73.5 -32t-38.5 -65.5t-9 -64.5v-677h-210v761q0 43 -17 60.5t-61 17.5h-15 q-70 0 -106 -51t-36 -103v-685h-210z" />
<glyph unicode="n" d="M130 0v1024h210v-72q124 97 264 97h23q223 0 347.5 -103.5t124.5 -277.5v-668h-210v668q0 171 -262 171h-23q-69 0 -133 -52.5t-97.5 -113.5t-33.5 -100v-573h-210z" />
<glyph unicode="o" d="M130 484v74q0 221 118 355.5t339 134.5h53q221 0 340 -134.5t119 -354.5v-76q0 -109 -28.5 -200.5t-84 -161t-145 -108t-205.5 -38.5h-47q-114 0 -203 39.5t-144.5 109.5t-83.5 161.5t-28 198.5zM340 484q0 -299 249 -299h47q122 0 187.5 70.5t65.5 227.5v76 q0 279 -249 279h-53q-247 0 -247 -280v-74z" />
<glyph unicode="p" d="M130 -385v1409h210v-38q111 63 264 63h23q116 0 207.5 -36t148.5 -99t86.5 -144.5t29.5 -177.5v-140q0 -210 -127 -343.5t-345 -133.5h-23q-146 0 -264 73v-433h-210zM340 433q0 -111 75.5 -179.5t188.5 -68.5h23q61 0 108 16t75.5 42t46.5 62t25 71.5t7 75.5v140 q0 50 -12 91.5t-40 78t-81.5 57t-128.5 20.5h-23q-140 0 -202 -67.5t-62 -179.5v-159z" />
<glyph unicode="q" d="M130 443v149q0 219 125.5 338t348.5 119h23q151 0 262 -62v37h210v-1409h-210v427q-111 -67 -262 -67h-23q-199 0 -336.5 134t-137.5 334zM340 443q0 -114 76.5 -186t187.5 -72h23q61 0 108 16t75.5 42t46.5 62t25 71.5t7 75.5v140q0 50 -12 91.5t-40 78t-81.5 57 t-128.5 20.5h-23q-140 0 -202 -67.5t-62 -179.5v-149z" />
<glyph unicode="r" d="M130 0v1024h210v-125q167 150 360 150h23q255 0 366 -145l-166 -128q-49 63 -200 63h-23q-66 0 -133.5 -35.5t-116 -89t-79.5 -119t-31 -122.5v-473h-210z" />
<glyph unicode="s" d="M130 331h210q0 -14 8.5 -34.5t29.5 -47.5t69.5 -45.5t115.5 -18.5h64q116 0 189 25t73 63v43q0 13 -16.5 33.5t-41.5 27.5l-444 116q-57 15 -101 46.5t-68 70t-35.5 76.5t-11.5 73v11q0 37 10 72t39 74t75 67.5t125.5 47t183.5 18.5h23q128 0 249 -53t182 -150l-178 -112 q-25 39 -94.5 72t-158.5 33h-23q-49 0 -90 -6t-64.5 -14.5t-40 -18.5t-22.5 -17.5t-6 -12.5v-11q0 -12 13.5 -33t42.5 -29l446 -116q91 -23 153.5 -99.5t62.5 -165.5v-43q0 -78 -38 -137t-105 -93.5t-149.5 -51t-179.5 -16.5h-64q-56 0 -115.5 14t-116 44t-101.5 71 t-72.5 100.5t-27.5 126.5z" />
<glyph unicode="t" d="M131 799v210h267l31 416h210l-31 -416h293v-210h-308l-35 -473v-12q0 -50 42 -89.5t100 -39.5h23q51 0 83 29.5t46 59.5l192 -86q-37 -83 -121 -148t-200 -65h-23q-141 0 -246.5 99t-105.5 240l34 485h-251z" />
<glyph unicode="u" d="M130 378v646h210v-646q0 -40 10 -72t34.5 -60.5t73 -44.5t118.5 -16h25q50 0 97 25t80 61.5t59 78.5t38.5 76t13.5 54v544h210v-1024h-210v93q-141 -118 -288 -118h-25q-114 0 -202 33t-140 90t-78 127.5t-26 152.5z" />
<glyph unicode="v" d="M78 1024h230l308 -687l308 687h230l-470 -1049h-136z" />
<glyph unicode="w" d="M60 1024h213l84 -552l181 447h156l181 -447l85 552h213l-158 -1024h-175l-224 552l-224 -552h-175z" />
<glyph unicode="x" d="M70 1024h269l277 -348l278 348h269l-412 -516l405 -508h-268l-272 340l-271 -340h-269l406 508z" />
<glyph unicode="y" d="M83 1024h246l401 -660l226 660h222l-399 -1166q-41 -121 -127.5 -189t-207.5 -68h-27q-65 0 -146.5 37.5t-146.5 95.5l-19 17l138 158l30 -26q35 -30 76 -51t68 -21h27q97 0 135 111l63 184z" />
<glyph unicode="z" d="M129 0v207l630 607h-611v210h949v-177l-662 -637h662v-210h-968z" />
<glyph unicode="{" d="M309 612v210h65q41 0 74.5 27t33.5 91v281q0 164 100 264t255 100h83v-210h-83q-63 0 -104 -37t-41 -117v-281q0 -134 -90 -231q90 -114 90 -273v-253q0 -83 41 -120.5t104 -37.5h83v-210h-83q-154 0 -254.5 101t-100.5 267v253q0 17 -3 39t-12.5 56.5t-33.5 57.5t-59 23 h-65z" />
<glyph unicode="|" d="M510 -77v1554h210v-1554h-210z" />
<glyph unicode="}" d="M309 25h74q63 0 104 37.5t41 120.5v253q0 158 90 273q-90 97 -90 231v281q0 80 -41 117t-104 37h-74v210h74q155 0 255 -100t100 -264v-281q0 -64 33.5 -91t74.5 -27h74v-210h-74q-35 0 -59 -23t-33.5 -57.5t-12.5 -56.5t-3 -39v-253q0 -166 -100.5 -267t-254.5 -101h-74 v210z" />
<glyph unicode="~" d="M219 846q4 8 10.5 22t30.5 49.5t50 62.5t68 49.5t86 22.5h14q68 0 100.5 -12.5t81.5 -53.5l68 -57q16 -13 25 -13h14q4 1 10 4.5t18.5 18.5t17.5 35l202 -54q-26 -96 -98 -155t-150 -59h-14q-37 0 -83.5 18.5t-75.5 42.5l-72 61q-16 14 -35 14h-11q-11 0 -27 -18t-32 -50 z" />
<glyph unicode="&#xa0;" />
<glyph unicode="&#xa1;" d="M425 1283q0 79 55.5 137t139.5 58q82 0 138 -57.5t56 -137.5q0 -79 -54.5 -137t-139.5 -58q-84 0 -139.5 57.5t-55.5 137.5zM485 87l33 822h198l33 -823q0 -77 -38.5 -125t-88.5 -48q-54 0 -95.5 48t-41.5 126z" />
<glyph unicode="&#xa2;" d="M130 433v159q0 206 127 331.5t347 125.5h66l40 146l202 -56l-34 -122q76 -20 127 -74t65 -93l-192 -84q-6 11 -10.5 17t-16 14.5t-29.5 16.5l-174 -631q195 3 230 74l190 -92q-15 -47 -58.5 -83t-94.5 -55.5t-111.5 -32t-102 -16t-74.5 -3.5h-37l-31 -113l-202 56l29 104 q-117 56 -186.5 164.5t-69.5 246.5zM340 433q0 -132 103 -202l169 609h-8q-140 0 -202 -68t-62 -180v-159z" />
<glyph unicode="&#xa3;" d="M20 155l55 30q302 165 302 288v43q0 46 -22 95h-225v210h71q-71 118 -71 222v35q0 38 7.5 74t26 77t54 75t85.5 62t127.5 43.5t173.5 15.5h23q110 0 213 -34t171 -106l-152 -146q-29 30 -87 53t-145 23h-23q-264 0 -264 -137v-35q0 -60 59 -141l63 -81h422v-210h-309 q12 -48 12 -95v-43q0 -52 -20.5 -112t-60.5 -106q90 -4 153 -36l47 -25q4 -2 31 -5.5t38 -3.5h48q81 0 152 46l114 -176q-123 -80 -266 -80h-48q-46 0 -93 10.5t-72 22.5l-47 25q-24 13 -82 13h-38q-187 0 -282 -53l-39 -22z" />
<glyph unicode="&#xa4;" d="M132 1135l158 138l116 -134q95 66 200 66h18q105 0 200 -66l116 134l158 -138l-135 -156q52 -96 52 -179v-29q0 -123 -45 -207l127 -141l-156 -140l-118 131q-92 -53 -199 -53h-18q-103 0 -197 55l-120 -133l-156 140l129 143q-47 85 -47 205v29q0 83 52 179zM425 771 q0 -79 56.5 -139.5t124.5 -60.5h18q70 0 125.5 57.5t55.5 142.5v29q0 79 -58 137t-123 58h-18q-65 0 -123 -58t-58 -137v-29z" />
<glyph unicode="&#xa5;" d="M73 1400h233l310 -645l311 645h233l-435 -903h269v-180h-273v-121h273v-180h-273v-176h-210v176h-280v180h280v121h-280v180h276z" />
<glyph unicode="&#xa6;" d="M510 -77v671h210v-671h-210zM510 810v667h210v-667h-210z" />
<glyph unicode="&#xa7;" d="M130 666v43q0 13 1 27.5t10 52t24.5 69.5t49.5 70t80 64q-99 94 -99 212v21q0 91 44 174.5t130.5 139.5t195.5 56h23q126 0 236.5 -74t161.5 -187l-192 -88q-27 60 -85.5 99.5t-120.5 39.5h-23q-72 0 -116 -51t-44 -109v-21q0 -44 61.5 -83t137.5 -39h22q85 0 156 -17 t118.5 -43.5t84.5 -62.5t57.5 -71.5t34 -72t17.5 -62t4 -44.5v-43q0 -20 -3 -40.5t-15 -62.5t-46 -88t-86 -85q39 -37 62 -82.5t27.5 -69.5t4.5 -42v-21q0 -152 -107 -263t-271 -111h-22q-129 0 -241 76t-162 192l192 84q27 -62 87 -102t124 -40h22q77 0 122.5 49t45.5 115 v21q0 35 -64 64t-142 29h-23q-112 0 -204.5 33.5t-150 88t-88.5 120.5t-31 135zM340 666q0 -25 14 -52t43 -53.5t83 -44t124 -17.5h23q111 0 186.5 50.5t75.5 116.5v43q0 60 -80 111.5t-182 51.5h-23q-112 0 -188 -50.5t-76 -112.5v-43z" />
<glyph unicode="&#xa8;" d="M212 1526q0 66 44.5 107.5t102.5 41.5q62 0 105 -44.5t43 -104.5q0 -62 -43.5 -108.5t-103.5 -46.5t-104 45.5t-44 109.5zM725 1526q0 63 43.5 106t103.5 43q57 0 101.5 -42t44.5 -107q0 -66 -44.5 -110.5t-101.5 -44.5q-59 0 -103 46t-44 109z" />
<glyph unicode="&#xa9;" d="M6 588q0 115 45 227t123 200t194 142t247 54q134 0 250.5 -54.5t193.5 -143t120.5 -199.5t43.5 -226q0 -112 -44 -218.5t-121.5 -190t-193 -134t-249.5 -50.5q-133 0 -248.5 49.5t-193.5 132t-122.5 190t-44.5 221.5zM196 587q0 -76 29.5 -148.5t82.5 -129t133 -90.5 t174 -34q95 0 175.5 35.5t132.5 93t81 128.5t29 145q0 106 -49.5 204t-147.5 164t-221 66q-91 0 -171 -38.5t-133.5 -100.5t-84 -139t-30.5 -156zM306 587q0 137 86.5 227t231.5 90q143 0 231 -93l-152 -144q-25 27 -80 27q-45 0 -76 -26t-31 -81q0 -45 25.5 -76t82.5 -31 q50 0 79 29l152 -144q-8 -11 -24.5 -24t-44.5 -30.5t-71 -29t-91 -11.5q-143 0 -230.5 91.5t-87.5 225.5z" />
<glyph unicode="&#xaa;" d="M235 158v210h759v-210h-759zM247 766v36q0 28 10 64.5t36.5 80t64.5 79t101.5 59.5t140.5 24h161v16q0 20 -4 39.5t-17 45.5t-44.5 42t-78.5 16h-17q-97 0 -133 -72l-188 94q44 88 128 138t193 50h17q165 0 259.5 -101t94.5 -252v-590h-196q-75 -52 -158 -52h-17 q-158 0 -255.5 84.5t-97.5 198.5zM457 766q0 -11 13 -27t48 -31t82 -15h17q41 0 71 15t45 38.5t21.5 46.5t6.5 46v60h-161q-67 0 -105 -31.5t-38 -65.5v-36z" />
<glyph unicode="&#xab;" d="M243 403v138l182 307l180 -108l-152 -257v-22l152 -256l-180 -108zM632 403v138l181 306l180 -106l-151 -258v-22l151 -257l-180 -106z" />
<glyph unicode="&#xac;" d="M234 489v210h745v-464h-210v254h-535z" />
<glyph unicode="&#xad;" d="M394 489v210h443v-210h-443z" />
<glyph unicode="&#xae;" d="M6 588q0 115 45 227t123 200t194 142t247 54q134 0 250.5 -54.5t193.5 -143t120.5 -199.5t43.5 -226q0 -112 -44 -218.5t-121.5 -190t-193 -134t-249.5 -50.5q-133 0 -248.5 49.5t-193.5 132t-122.5 190t-44.5 221.5zM196 587q0 -76 29.5 -148.5t82.5 -129t133 -90.5 t174 -34q95 0 175.5 35.5t132.5 93t81 128.5t29 145q0 106 -49.5 204t-147.5 164t-221 66q-91 0 -171 -38.5t-133.5 -100.5t-84 -139t-30.5 -156zM395 314v567h256q248 0 248 -203v-23q0 -104 -81 -164l76 -101l-178 -112l-111 156v-120h-210zM575 592h76q27 0 47.5 18 t20.5 47v10q0 26 -20 45t-48 19h-76v-139z" />
<glyph unicode="&#xaf;" d="M384 464v150h453v-150h-453z" />
<glyph unicode="&#xb0;" d="M285 1108q0 145 94.5 237.5t235.5 92.5q132 0 231 -92.5t99 -237.5q0 -139 -99.5 -235t-230.5 -96q-143 0 -236.5 94.5t-93.5 236.5zM495 1108q0 -58 32 -89.5t88 -31.5q59 0 89.5 34t30.5 87q0 52 -32 86t-88 34q-55 0 -87.5 -34.5t-32.5 -85.5z" />
<glyph unicode="&#xb1;" d="M234 78v210h762v-210h-762zM234 733v210h276v305h210v-305h276v-210h-276v-307h-210v307h-276z" />
<glyph unicode="&#xb2;" d="M368 536v156q14 50 50 111.5t73 102.5l196 218q10 11 17 24t9.5 20.5t2.5 9.5v20q0 9 -1.5 14t-7 12t-21 10.5t-39.5 3.5h-12q-38 0 -76 -67l-181 109l24 38q86 130 233 130h12q129 0 204 -69t75 -181v-20q0 -38 -21.5 -94t-67.5 -108l-192 -214q-11 -11 -15 -16h250 v-210h-512z" />
<glyph unicode="&#xb3;" d="M320 792h210q0 -22 21.5 -42.5t38.5 -20.5h11q14 0 24.5 2t25 9.5t22.5 26t8 46.5v20q0 24 -18 54t-48 30h-97v210h97q11 0 20.5 11.5t13.5 21.5t4 13v21q0 35 -32 35h-11q-18 0 -36 -11t-23 -22l-190 88q30 66 99.5 110.5t149.5 44.5h11q104 0 173 -72t69 -173v-21 q0 -70 -48 -140q76 -88 76 -200v-20q0 -132 -83 -213t-207 -81h-11q-102 0 -186 81t-84 192z" />
<glyph unicode="&#xb4;" d="M407 1303l259 363l158 -114l-259 -363z" />
<glyph unicode="&#xb5;" d="M64 -287q43 61 54.5 107t11.5 155v1049h210v-619q0 -92 67.5 -156t196.5 -64h23q67 0 121 27t82.5 65t43.5 72t15 56v619h210v-896q0 -24 0.5 -36t5.5 -26t15 -21l-122 -170q-89 63 -105 184q-128 -84 -266 -84h-23q-150 0 -264 66v-66q0 -139 -19.5 -215.5t-84.5 -168.5 z" />
<glyph unicode="&#xb6;" d="M127 1055v62q0 83 35.5 157.5t92.5 124t126.5 78t137.5 28.5h580v-1505h-210v1295h-168v-1295h-210v637q-92 3 -161.5 29.5t-111 66.5t-67.5 96t-35 110t-9 116z" />
<glyph unicode="&#xb7;" d="M420 747q0 79 54.5 137t139.5 58q84 0 139.5 -57.5t55.5 -137.5q0 -79 -55.5 -137t-139.5 -58q-82 0 -138 57.5t-56 137.5z" />
<glyph unicode="&#xb8;" d="M405 -391l98 94q68 -59 152 -59q51 0 81 22.5t30 63.5q0 83 -123 83h-80l14 190v15h150v-21l-4 -60q193 -33 193 -207q0 -73 -39.5 -123.5t-96.5 -71.5t-125 -21q-140 0 -250 95z" />
<glyph unicode="&#xb9;" d="M449 1215l207 210h141v-792h-210v550l-90 -33z" />
<glyph unicode="&#xba;" d="M214 980q0 110 23.5 198t62.5 144t92 93t108.5 52.5t115.5 15.5q53 0 101.5 -10.5t103.5 -43.5t94.5 -86t66 -146.5t26.5 -216.5q0 -114 -26 -203.5t-66.5 -142.5t-94.5 -87t-103.5 -46.5t-101.5 -12.5q-60 0 -115.5 15.5t-108.5 52.5t-92 92t-62.5 140.5t-23.5 191.5z M235 158v210h759v-210h-759zM424 980q0 -69 12.5 -121.5t31.5 -82t45.5 -48t50.5 -24.5t52 -6q182 0 182 282q0 151 -43.5 222t-138.5 71q-47 0 -83 -19.5t-56 -48.5t-32.5 -70.5t-16.5 -77.5t-4 -77z" />
<glyph unicode="&#xbb;" d="M238 204l151 257v22l-151 258l180 106l181 -306v-138l-181 -305zM626 205l152 256v22l-152 257l180 108l182 -307v-138l-182 -306z" />
<glyph unicode="&#xbc;" d="M31 1376l225 193h132v-786h-210v551l-95 -48zM142 24l759 1450l186 -98l-759 -1450zM597 -37v224l300 384h202v-398h88v-210h-88v-172h-210v172h-292zM766 152h142v171z" />
<glyph unicode="&#xbd;" d="M31 1376l225 193h132v-786h-210v551l-95 -48zM82 24l759 1450l186 -98l-759 -1450zM557 -113q10 22 48 68.5t72 75.5l282 235q36 29 36 52v20q0 19 -32.5 31t-63.5 12h-14q-72 0 -126 -76l-176 114q22 31 42 53t56.5 50t88.5 43.5t115 15.5h14q20 0 49 -3.5t76.5 -18.5 t85.5 -39t66.5 -71.5t28.5 -110.5v-20q0 -5 -1 -14.5t-7 -35t-16.5 -50t-33.5 -56.5t-54 -58l-251 -209h283v-210h-568v202z" />
<glyph unicode="&#xbe;" d="M10 991h210q0 -22 21.5 -42.5t38.5 -20.5h11q14 0 24.5 2t25 9.5t22.5 26t8 46.5v20q0 24 -18 54t-48 30h-97v210h97q11 0 20.5 11.5t13.5 21.5t4 13v21q0 35 -32 35h-11q-18 0 -36 -11t-23 -22l-190 88q30 66 99.5 110.5t149.5 44.5h11q104 0 173 -72t69 -173v-21 q0 -70 -48 -140q76 -88 76 -200v-20q0 -132 -83 -213t-207 -81h-11q-102 0 -186 81t-84 192zM192 24l759 1450l186 -98l-759 -1450zM597 -37v224l300 384h202v-398h88v-210h-88v-172h-210v172h-292zM766 152h142v171z" />
<glyph unicode="&#xbf;" d="M-177 301v65q0 93 35 161t107 130l175 151q57 50 61 99v131h210v-131q0 -16 -5 -39.5t-17 -61t-41.5 -80t-71.5 -78.5l-175 -151q-68 -59 -68 -131v-65q0 -66 73 -96t189 -30h23q32 0 65 3.5t83.5 14.5t82.5 39.5t33 70.5l210 -4q-1 -46 -12.5 -88t-43.5 -88.5t-82.5 -80 t-137 -55.5t-198.5 -22h-23q-218 0 -345 85.5t-127 250.5zM139 1381q0 69 48 119t121 50q71 0 119.5 -50t48.5 -119t-47 -119t-121 -50q-73 0 -121 49.5t-48 119.5z" />
<glyph unicode="&#xc0;" d="M87 0l450 1425h158l451 -1425h-218l-74 233h-475l-74 -233h-218zM354 1654l140 135l258 -272l-140 -135zM446 443h341l-171 537z" />
<glyph unicode="&#xc1;" d="M87 0l450 1425h158l451 -1425h-218l-74 233h-475l-74 -233h-218zM446 443h341l-171 537zM491 1519l258 272l140 -135l-258 -272z" />
<glyph unicode="&#xc2;" d="M87 0l450 1425h158l451 -1425h-218l-74 233h-475l-74 -233h-218zM327 1594l204 112h172l204 -112l-72 -132l-218 120l-218 -120zM446 443h341l-171 537z" />
<glyph unicode="&#xc3;" d="M87 0l450 1425h158l451 -1425h-218l-74 233h-475l-74 -233h-218zM261 1605l17 26q77 118 188 118h16q99 0 161 -55l19 -17q4 -4 24.5 -11t36.5 -7h17q13 0 31 12.5t32 36.5l14 24l130 -76l-14 -24q-31 -53 -79.5 -83.5t-81.5 -34.5l-32 -5h-17q-45 0 -90.5 17t-70.5 39 l-18 16q-20 18 -62 18h-16q-30 0 -62 -50l-17 -26zM446 443h341l-171 537z" />
<glyph unicode="&#xc4;" d="M87 0l450 1425h158l451 -1425h-218l-74 233h-475l-74 -233h-218zM213 1597q0 66 44.5 107.5t102.5 41.5q62 0 105 -44.5t43 -104.5q0 -62 -43.5 -108.5t-103.5 -46.5t-104 45.5t-44 109.5zM446 443h341l-171 537zM726 1597q0 63 43.5 106t103.5 43q57 0 101.5 -42 t44.5 -107q0 -66 -44.5 -110.5t-101.5 -44.5q-59 0 -103 46t-44 109z" />
<glyph unicode="&#xc5;" d="M87 0l450 1425h158l451 -1425h-218l-74 233h-475l-74 -233h-218zM406 1489q0 84 58 143t142 59t144 -59t60 -143t-60 -143t-144 -59t-142 59t-58 143zM446 443h341l-171 537zM516 1489q0 -38 26.5 -65t64.5 -27t65.5 27t27.5 65t-27.5 65t-65.5 27t-64.5 -27t-26.5 -65z " />
<glyph unicode="&#xc6;" d="M46 0l275 1178q15 65 56 112.5t89 69.5t84.5 31t59.5 9h489v-210h-279v-338h174v-210h-174v-432h279v-210h-489v642h-199l-149 -642h-216zM460 852h150v338q-71 0 -85 -60z" />
<glyph unicode="&#xc7;" d="M130 684v62q0 679 490 679h32q166 0 281 -78.5t167 -239.5l-200 -64q-29 91 -87.5 131.5t-160.5 40.5h-32q-145 0 -212.5 -105.5t-67.5 -363.5v-62q0 -499 281 -499h31q84 0 141.5 40.5t91.5 137.5l198 -68q-53 -152 -161 -236t-270 -84h-31q-46 0 -89.5 7.5t-93.5 28.5 t-93 54t-83.5 88.5t-69 127.5t-45.5 175.5t-17 227.5zM415 -397l98 94q68 -59 152 -59q51 0 81 22.5t30 63.5q0 83 -123 83h-80l14 190v15h150v-21l-4 -60q193 -33 193 -207q0 -73 -39.5 -123.5t-96.5 -71.5t-125 -21q-140 0 -250 95z" />
<glyph unicode="&#xc8;" d="M130 0v1400h969v-210h-759v-317h598v-210h-598v-452h759v-211h-969zM353 1656l140 135l258 -272l-140 -135z" />
<glyph unicode="&#xc9;" d="M130 0v1400h969v-210h-759v-317h598v-210h-598v-452h759v-211h-969zM490 1519l258 272l140 -135l-258 -272z" />
<glyph unicode="&#xca;" d="M130 0v1400h969v-210h-759v-317h598v-210h-598v-452h759v-211h-969zM326 1593l204 112h172l204 -112l-72 -132l-218 120l-218 -120z" />
<glyph unicode="&#xcb;" d="M130 0v1400h969v-210h-759v-317h598v-210h-598v-452h759v-211h-969zM212 1594q0 66 44.5 107.5t102.5 41.5q62 0 105 -44.5t43 -104.5q0 -62 -43.5 -108.5t-103.5 -46.5t-104 45.5t-44 109.5zM725 1594q0 63 43.5 106t103.5 43q57 0 101.5 -42t44.5 -107 q0 -66 -44.5 -110.5t-101.5 -44.5q-59 0 -103 46t-44 109z" />
<glyph unicode="&#xcc;" d="M230 0v210h281v980h-281v210h769v-210h-278v-980h278v-210h-769zM354 1656l140 135l258 -272l-140 -135z" />
<glyph unicode="&#xcd;" d="M230 0v210h281v980h-281v210h769v-210h-278v-980h278v-210h-769zM491 1519l258 272l140 -135l-258 -272z" />
<glyph unicode="&#xce;" d="M230 0v210h281v980h-281v210h769v-210h-278v-980h278v-210h-769zM327 1593l204 112h172l204 -112l-72 -132l-218 120l-218 -120z" />
<glyph unicode="&#xcf;" d="M213 1594q0 66 44.5 107.5t102.5 41.5q62 0 105 -44.5t43 -104.5q0 -62 -43.5 -108.5t-103.5 -46.5t-104 45.5t-44 109.5zM230 0v210h281v980h-281v210h769v-210h-278v-980h278v-210h-769zM726 1594q0 63 43.5 106t103.5 43q57 0 101.5 -42t44.5 -107q0 -66 -44.5 -110.5 t-101.5 -44.5q-59 0 -103 46t-44 109z" />
<glyph unicode="&#xd0;" d="M80 635v210h134v555h375q118 0 208 -34.5t146.5 -92t91.5 -143t48.5 -178t13.5 -206.5v-59q0 -121 -18 -221.5t-47 -170.5t-71 -123.5t-86.5 -85.5t-96.5 -52t-97 -27t-92 -7h-375v635h-134zM424 210h165q147 0 222.5 114.5t75.5 362.5v59q0 132 -18.5 220t-58 136.5 t-92 68t-129.5 19.5h-165v-345h153v-210h-153v-425z" />
<glyph unicode="&#xd1;" d="M130 0v1400h179l580 -946v946h210v-1400h-178l-581 948v-948h-210zM261 1612l17 26q77 118 188 118h16q99 0 161 -55l19 -17q4 -4 24.5 -11t36.5 -7h17q13 0 31 12.5t32 36.5l14 24l130 -76l-14 -24q-31 -53 -79.5 -83.5t-81.5 -34.5l-32 -5h-17q-45 0 -90.5 17t-70.5 39 l-18 16q-20 18 -62 18h-16q-30 0 -62 -50l-17 -26z" />
<glyph unicode="&#xd2;" d="M130 684v62q0 94 8 173t27.5 159t55 140.5t87 108.5t127.5 73t173 25h17q97 0 173.5 -25.5t127.5 -73.5t86 -108.5t53.5 -140.5t26 -157.5t7.5 -171.5v-64q0 -128 -16.5 -233.5t-44 -177.5t-67 -127t-80 -86.5t-89.5 -51.5t-90.5 -26.5t-86.5 -6.5h-16q-45 0 -87 6.5 t-91.5 26.5t-91 52t-81 87t-67 127t-44.5 177t-17 233zM340 684q0 -252 65.5 -375.5t203.5 -123.5h16q137 1 200.5 123.5t63.5 375.5v64q0 177 -27 279t-83.5 145t-153.5 43h-17q-97 0 -154 -43t-85.5 -146t-28.5 -280v-62zM359 1656l140 135l258 -272l-140 -135z" />
<glyph unicode="&#xd3;" d="M130 684v62q0 94 8 173t27.5 159t55 140.5t87 108.5t127.5 73t173 25h17q97 0 173.5 -25.5t127.5 -73.5t86 -108.5t53.5 -140.5t26 -157.5t7.5 -171.5v-64q0 -128 -16.5 -233.5t-44 -177.5t-67 -127t-80 -86.5t-89.5 -51.5t-90.5 -26.5t-86.5 -6.5h-16q-45 0 -87 6.5 t-91.5 26.5t-91 52t-81 87t-67 127t-44.5 177t-17 233zM340 684q0 -252 65.5 -375.5t203.5 -123.5h16q137 1 200.5 123.5t63.5 375.5v64q0 177 -27 279t-83.5 145t-153.5 43h-17q-97 0 -154 -43t-85.5 -146t-28.5 -280v-62zM496 1518l258 272l140 -135l-258 -272z" />
<glyph unicode="&#xd4;" d="M130 684v62q0 94 8 173t27.5 159t55 140.5t87 108.5t127.5 73t173 25h17q97 0 173.5 -25.5t127.5 -73.5t86 -108.5t53.5 -140.5t26 -157.5t7.5 -171.5v-64q0 -128 -16.5 -233.5t-44 -177.5t-67 -127t-80 -86.5t-89.5 -51.5t-90.5 -26.5t-86.5 -6.5h-16q-45 0 -87 6.5 t-91.5 26.5t-91 52t-81 87t-67 127t-44.5 177t-17 233zM332 1592l204 112h172l204 -112l-72 -132l-218 120l-218 -120zM340 684q0 -252 65.5 -375.5t203.5 -123.5h16q137 1 200.5 123.5t63.5 375.5v64q0 177 -27 279t-83.5 145t-153.5 43h-17q-97 0 -154 -43t-85.5 -146 t-28.5 -280v-62z" />
<glyph unicode="&#xd5;" d="M130 684v62q0 94 8 173t27.5 159t55 140.5t87 108.5t127.5 73t173 25h17q97 0 173.5 -25.5t127.5 -73.5t86 -108.5t53.5 -140.5t26 -157.5t7.5 -171.5v-64q0 -128 -16.5 -233.5t-44 -177.5t-67 -127t-80 -86.5t-89.5 -51.5t-90.5 -26.5t-86.5 -6.5h-16q-45 0 -87 6.5 t-91.5 26.5t-91 52t-81 87t-67 127t-44.5 177t-17 233zM267 1608l17 26q77 118 188 118h16q99 0 161 -55l19 -17q4 -4 24.5 -11t36.5 -7h17q13 0 31 12.5t32 36.5l14 24l130 -76l-14 -24q-31 -53 -79.5 -83.5t-81.5 -34.5l-32 -5h-17q-45 0 -90.5 17t-70.5 39l-18 16 q-20 18 -62 18h-16q-30 0 -62 -50l-17 -26zM340 684q0 -252 65.5 -375.5t203.5 -123.5h16q137 1 200.5 123.5t63.5 375.5v64q0 177 -27 279t-83.5 145t-153.5 43h-17q-97 0 -154 -43t-85.5 -146t-28.5 -280v-62z" />
<glyph unicode="&#xd6;" d="M130 684v62q0 94 8 173t27.5 159t55 140.5t87 108.5t127.5 73t173 25h17q97 0 173.5 -25.5t127.5 -73.5t86 -108.5t53.5 -140.5t26 -157.5t7.5 -171.5v-64q0 -128 -16.5 -233.5t-44 -177.5t-67 -127t-80 -86.5t-89.5 -51.5t-90.5 -26.5t-86.5 -6.5h-16q-45 0 -87 6.5 t-91.5 26.5t-91 52t-81 87t-67 127t-44.5 177t-17 233zM218 1592q0 66 44.5 107.5t102.5 41.5q62 0 105 -44.5t43 -104.5q0 -62 -43.5 -108.5t-103.5 -46.5t-104 45.5t-44 109.5zM340 684q0 -252 65.5 -375.5t203.5 -123.5h16q137 1 200.5 123.5t63.5 375.5v64 q0 177 -27 279t-83.5 145t-153.5 43h-17q-97 0 -154 -43t-85.5 -146t-28.5 -280v-62zM731 1592q0 63 43.5 106t103.5 43q57 0 101.5 -42t44.5 -107q0 -66 -44.5 -110.5t-101.5 -44.5q-59 0 -103 46t-44 109z" />
<glyph unicode="&#xd7;" d="M270 396l201 214l-201 213l152 144l194 -205l193 205l152 -144l-201 -213l201 -214l-152 -144l-193 205l-194 -205z" />
<glyph unicode="&#xd8;" d="M17 178l143 166q-44 155 -44 373q0 102 8.5 185.5t29 166.5t57.5 145.5t91 111t133.5 74t180.5 25.5q232 0 356 -138l138 161l99 -207l-133 -154q43 -146 43 -370q0 -130 -12.5 -233.5t-46.5 -201.5t-89 -163.5t-145 -104.5t-210 -39q-232 0 -357 163l-137 -159zM326 717 q0 -88 8 -170l497 577q-65 91 -215 91q-104 0 -165 -42.5t-93 -152t-32 -303.5zM402 304q70 -119 214 -119q103 0 164.5 45t95 163t33.5 324q0 98 -7 167z" />
<glyph unicode="&#xd9;" d="M130 396v1004h210v-1004q0 -91 67 -151t197 -60h23q130 0 196 59.5t66 151.5v1004h210v-1004q0 -84 -31 -159.5t-89 -134t-149 -93t-203 -34.5h-23q-111 0 -202 34.5t-150 92.5t-90.5 134t-31.5 160zM353 1655l140 135l258 -272l-140 -135z" />
<glyph unicode="&#xda;" d="M130 396v1004h210v-1004q0 -91 67 -151t197 -60h23q130 0 196 59.5t66 151.5v1004h210v-1004q0 -84 -31 -159.5t-89 -134t-149 -93t-203 -34.5h-23q-111 0 -202 34.5t-150 92.5t-90.5 134t-31.5 160zM490 1519l258 272l140 -135l-258 -272z" />
<glyph unicode="&#xdb;" d="M130 396v1004h210v-1004q0 -91 67 -151t197 -60h23q130 0 196 59.5t66 151.5v1004h210v-1004q0 -84 -31 -159.5t-89 -134t-149 -93t-203 -34.5h-23q-111 0 -202 34.5t-150 92.5t-90.5 134t-31.5 160zM326 1591l204 112h172l204 -112l-72 -132l-218 120l-218 -120z" />
<glyph unicode="&#xdc;" d="M130 396v1004h210v-1004q0 -91 67 -151t197 -60h23q130 0 196 59.5t66 151.5v1004h210v-1004q0 -84 -31 -159.5t-89 -134t-149 -93t-203 -34.5h-23q-111 0 -202 34.5t-150 92.5t-90.5 134t-31.5 160zM212 1593q0 66 44.5 107.5t102.5 41.5q62 0 105 -44.5t43 -104.5 q0 -62 -43.5 -108.5t-103.5 -46.5t-104 45.5t-44 109.5zM725 1593q0 63 43.5 106t103.5 43q57 0 101.5 -42t44.5 -107q0 -66 -44.5 -110.5t-101.5 -44.5q-59 0 -103 46t-44 109z" />
<glyph unicode="&#xdd;" d="M73 1400h233l310 -645l311 645h233l-439 -911v-514h-210v514zM491 1518l258 272l140 -135l-258 -272z" />
<glyph unicode="&#xde;" d="M130 0v1540h210v-225h287q237 0 354.5 -119t117.5 -313v-124q0 -84 -31 -158.5t-89 -132t-149 -90.5t-203 -33h-287v-345h-210zM340 555h287q130 0 196 57t66 147v124q0 108 -57 165t-205 57h-287v-550z" />
<glyph unicode="&#xdf;" d="M130 -388v1478q0 17 2 36t12.5 54t28 65t53.5 64.5t84 59t124 40.5t170 16h23q96 0 170.5 -22.5t117.5 -57t70.5 -81.5t37 -89.5t9.5 -87.5v-34q0 -165 -89 -263q156 -104 156 -303v-100q0 -171 -115 -291.5t-295 -120.5h-11q-144 0 -240 64l118 174q42 -28 122 -28h11 q92 0 146 58.5t54 143.5v100q0 176 -262 176h-91v210h25q54 0 96 6t69.5 14.5t46.5 25t28.5 29t14.5 34.5t5.5 35t0.5 36v34q0 128 -195 128h-23q-69 0 -120.5 -10t-78 -23.5t-42.5 -32.5t-19.5 -32t-3.5 -27v-1478h-210z" />
<glyph unicode="&#xe0;" d="M130 296v54q0 35 12 73t45.5 82t84 78t137 57t195.5 23h285v14q0 31 -9 55.5t-34.5 51t-81 41t-137.5 14.5h-23q-195 0 -245 -81l-180 108q110 183 425 183h23q111 0 197.5 -25t137 -63t82.5 -89.5t43.5 -98.5t11.5 -96v-677h-210v48q-132 -73 -262 -73h-23 q-113 0 -207 31t-150 79.5t-86.5 103.5t-30.5 107zM340 296q0 -25 11.5 -44t39.5 -34.5t81.5 -24t131.5 -8.5h23q49 0 93 12.5t74 31t52 39t32.5 36t10.5 22.5v127h-285q-64 0 -115 -11t-77 -25t-44 -31t-22.5 -26t-5.5 -13v-51zM373 1318l140 135l258 -272l-140 -135z" />
<glyph unicode="&#xe1;" d="M130 296v54q0 35 12 73t45.5 82t84 78t137 57t195.5 23h285v14q0 31 -9 55.5t-34.5 51t-81 41t-137.5 14.5h-23q-195 0 -245 -81l-180 108q110 183 425 183h23q111 0 197.5 -25t137 -63t82.5 -89.5t43.5 -98.5t11.5 -96v-677h-210v48q-132 -73 -262 -73h-23 q-113 0 -207 31t-150 79.5t-86.5 103.5t-30.5 107zM340 296q0 -25 11.5 -44t39.5 -34.5t81.5 -24t131.5 -8.5h23q49 0 93 12.5t74 31t52 39t32.5 36t10.5 22.5v127h-285q-64 0 -115 -11t-77 -25t-44 -31t-22.5 -26t-5.5 -13v-51zM510 1181l258 272l140 -135l-258 -272z" />
<glyph unicode="&#xe2;" d="M130 296v54q0 35 12 73t45.5 82t84 78t137 57t195.5 23h285v14q0 31 -9 55.5t-34.5 51t-81 41t-137.5 14.5h-23q-195 0 -245 -81l-180 108q110 183 425 183h23q111 0 197.5 -25t137 -63t82.5 -89.5t43.5 -98.5t11.5 -96v-677h-210v48q-132 -73 -262 -73h-23 q-113 0 -207 31t-150 79.5t-86.5 103.5t-30.5 107zM340 296q0 -25 11.5 -44t39.5 -34.5t81.5 -24t131.5 -8.5h23q49 0 93 12.5t74 31t52 39t32.5 36t10.5 22.5v127h-285q-64 0 -115 -11t-77 -25t-44 -31t-22.5 -26t-5.5 -13v-51zM346 1295l204 112h172l204 -112l-72 -132 l-218 120l-218 -120z" />
<glyph unicode="&#xe3;" d="M130 296v54q0 35 12 73t45.5 82t84 78t137 57t195.5 23h285v14q0 31 -9 55.5t-34.5 51t-81 41t-137.5 14.5h-23q-195 0 -245 -81l-180 108q110 183 425 183h23q111 0 197.5 -25t137 -63t82.5 -89.5t43.5 -98.5t11.5 -96v-677h-210v48q-132 -73 -262 -73h-23 q-113 0 -207 31t-150 79.5t-86.5 103.5t-30.5 107zM281 1294l17 26q77 118 188 118h16q99 0 161 -55l19 -17q4 -4 24.5 -11t36.5 -7h17q13 0 31 12.5t32 36.5l14 24l130 -76l-14 -24q-31 -53 -79.5 -83.5t-81.5 -34.5l-32 -5h-17q-45 0 -90.5 17t-70.5 39l-18 16 q-20 18 -62 18h-16q-30 0 -62 -50l-17 -26zM340 296q0 -25 11.5 -44t39.5 -34.5t81.5 -24t131.5 -8.5h23q49 0 93 12.5t74 31t52 39t32.5 36t10.5 22.5v127h-285q-64 0 -115 -11t-77 -25t-44 -31t-22.5 -26t-5.5 -13v-51z" />
<glyph unicode="&#xe4;" d="M130 296v54q0 35 12 73t45.5 82t84 78t137 57t195.5 23h285v14q0 31 -9 55.5t-34.5 51t-81 41t-137.5 14.5h-23q-195 0 -245 -81l-180 108q110 183 425 183h23q111 0 197.5 -25t137 -63t82.5 -89.5t43.5 -98.5t11.5 -96v-677h-210v48q-132 -73 -262 -73h-23 q-113 0 -207 31t-150 79.5t-86.5 103.5t-30.5 107zM232 1256q0 66 44.5 107.5t102.5 41.5q62 0 105 -44.5t43 -104.5q0 -62 -43.5 -108.5t-103.5 -46.5t-104 45.5t-44 109.5zM340 296q0 -25 11.5 -44t39.5 -34.5t81.5 -24t131.5 -8.5h23q49 0 93 12.5t74 31t52 39t32.5 36 t10.5 22.5v127h-285q-64 0 -115 -11t-77 -25t-44 -31t-22.5 -26t-5.5 -13v-51zM745 1256q0 63 43.5 106t103.5 43q57 0 101.5 -42t44.5 -107q0 -66 -44.5 -110.5t-101.5 -44.5q-59 0 -103 46t-44 109z" />
<glyph unicode="&#xe5;" d="M130 296v54q0 35 12 73t45.5 82t84 78t137 57t195.5 23h285v14q0 31 -9 55.5t-34.5 51t-81 41t-137.5 14.5h-23q-195 0 -245 -81l-180 108q110 183 425 183h23q111 0 197.5 -25t137 -63t82.5 -89.5t43.5 -98.5t11.5 -96v-677h-210v48q-132 -73 -262 -73h-23 q-113 0 -207 31t-150 79.5t-86.5 103.5t-30.5 107zM340 296q0 -25 11.5 -44t39.5 -34.5t81.5 -24t131.5 -8.5h23q49 0 93 12.5t74 31t52 39t32.5 36t10.5 22.5v127h-285q-64 0 -115 -11t-77 -25t-44 -31t-22.5 -26t-5.5 -13v-51zM425 1369q0 84 58 143t142 59t144 -59 t60 -143t-60 -143t-144 -59t-142 59t-58 143zM535 1369q0 -38 26.5 -65t64.5 -27t65.5 27t27.5 65t-27.5 65t-65.5 27t-64.5 -27t-26.5 -65z" />
<glyph unicode="&#xe6;" d="M93 268v73q0 32 7 67t28.5 79t56 77.5t97 57t142.5 23.5h87v112q0 28 -29 55t-64 27q-52 0 -83.5 -27.5t-31.5 -54.5h-210q0 25 9 58.5t33 75.5t59 76.5t93.5 58t130.5 23.5q115 0 198 -70q83 70 198 70q72 0 130 -20.5t93.5 -52t59.5 -71.5t33.5 -77t9.5 -71v-322h-419 v-167q0 -31 24.5 -57t68.5 -26q13 0 28 3t35.5 10.5t35 25.5t17.5 44h210v-2q0 -115 -91.5 -203t-234.5 -88q-115 0 -199 71q-84 -71 -197 -71q-139 0 -232 81.5t-93 211.5zM303 268q0 -26 13 -44t33.5 -26t36.5 -10.5t32 -2.5q44 0 68.5 27t24.5 56v167h-87 q-68 0 -94.5 -30t-26.5 -64v-73zM721 645h209v112q0 34 -32.5 58t-83.5 24q-35 0 -64 -27.5t-29 -54.5v-112z" />
<glyph unicode="&#xe7;" d="M130 433v159q0 199 123.5 327.5t350.5 128.5h23q184 0 285.5 -54.5t157.5 -161.5l-192 -84q-49 90 -251 90h-23q-73 0 -125.5 -19t-82 -54t-43 -77.5t-13.5 -95.5v-159q0 -111 75.5 -179.5t188.5 -68.5h23q90 0 158 24.5t93 75.5l190 -92q-51 -105 -165.5 -161.5 t-275.5 -56.5h-23q-199 0 -336.5 129.5t-137.5 328.5zM420 -404l98 94q68 -59 152 -59q51 0 81 22.5t30 63.5q0 83 -123 83h-80l14 190v15h150v-21l-4 -60q193 -33 193 -207q0 -73 -39.5 -123.5t-96.5 -71.5t-125 -21q-140 0 -250 95z" />
<glyph unicode="&#xe8;" d="M130 378v271q0 175 126.5 287.5t347.5 112.5h23q221 0 346.5 -112.5t125.5 -287.5v-196h-759v-75q0 -31 15 -63t44.5 -62t83 -49t121.5 -19h23q115 0 175.5 31t77.5 74l196 -76q-43 -111 -158.5 -175t-290.5 -64h-23q-108 0 -199 34.5t-150 91.5t-92 129t-33 148z M340 663h549q-3 50 -27 86t-63.5 55t-81.5 27t-90 8h-23q-47 0 -89 -8t-82 -27t-65 -55t-28 -86zM376 1320l140 135l258 -272l-140 -135z" />
<glyph unicode="&#xe9;" d="M130 378v271q0 175 126.5 287.5t347.5 112.5h23q221 0 346.5 -112.5t125.5 -287.5v-196h-759v-75q0 -31 15 -63t44.5 -62t83 -49t121.5 -19h23q115 0 175.5 31t77.5 74l196 -76q-43 -111 -158.5 -175t-290.5 -64h-23q-108 0 -199 34.5t-150 91.5t-92 129t-33 148z M340 663h549q-3 50 -27 86t-63.5 55t-81.5 27t-90 8h-23q-47 0 -89 -8t-82 -27t-65 -55t-28 -86zM513 1183l258 272l140 -135l-258 -272z" />
<glyph unicode="&#xea;" d="M130 378v271q0 175 126.5 287.5t347.5 112.5h23q221 0 346.5 -112.5t125.5 -287.5v-196h-759v-75q0 -31 15 -63t44.5 -62t83 -49t121.5 -19h23q115 0 175.5 31t77.5 74l196 -76q-43 -111 -158.5 -175t-290.5 -64h-23q-108 0 -199 34.5t-150 91.5t-92 129t-33 148z M340 663h549q-3 50 -27 86t-63.5 55t-81.5 27t-90 8h-23q-47 0 -89 -8t-82 -27t-65 -55t-28 -86zM349 1297l204 112h172l204 -112l-72 -132l-218 120l-218 -120z" />
<glyph unicode="&#xeb;" d="M130 378v271q0 175 126.5 287.5t347.5 112.5h23q221 0 346.5 -112.5t125.5 -287.5v-196h-759v-75q0 -31 15 -63t44.5 -62t83 -49t121.5 -19h23q115 0 175.5 31t77.5 74l196 -76q-43 -111 -158.5 -175t-290.5 -64h-23q-108 0 -199 34.5t-150 91.5t-92 129t-33 148z M235 1258q0 66 44.5 107.5t102.5 41.5q62 0 105 -44.5t43 -104.5q0 -62 -43.5 -108.5t-103.5 -46.5t-104 45.5t-44 109.5zM340 663h549q-3 50 -27 86t-63.5 55t-81.5 27t-90 8h-23q-47 0 -89 -8t-82 -27t-65 -55t-28 -86zM748 1258q0 63 43.5 106t103.5 43q57 0 101.5 -42 t44.5 -107q0 -66 -44.5 -110.5t-101.5 -44.5q-59 0 -103 46t-44 109z" />
<glyph unicode="&#xec;" d="M235 0v210h276v604h-206v210h416v-814h273v-210h-759zM362 1318l140 135l258 -272l-140 -135z" />
<glyph unicode="&#xed;" d="M235 0v210h276v604h-206v210h416v-814h273v-210h-759zM499 1181l258 272l140 -135l-258 -272z" />
<glyph unicode="&#xee;" d="M235 0v210h276v604h-206v210h416v-814h273v-210h-759zM335 1295l204 112h172l204 -112l-72 -132l-218 120l-218 -120z" />
<glyph unicode="&#xef;" d="M221 1256q0 66 44.5 107.5t102.5 41.5q62 0 105 -44.5t43 -104.5q0 -62 -43.5 -108.5t-103.5 -46.5t-104 45.5t-44 109.5zM235 0v210h276v604h-206v210h416v-814h273v-210h-759zM734 1256q0 63 43.5 106t103.5 43q57 0 101.5 -42t44.5 -107q0 -66 -44.5 -110.5 t-101.5 -44.5q-59 0 -103 46t-44 109z" />
<glyph unicode="&#xf0;" d="M130 452v28q0 122 56 223.5t165.5 164.5t252.5 63h23q70 0 130 -15q-63 87 -153 177l-336 -102l-60 202l212 64q-38 31 -120 89l120 172q125 -87 239 -189l305 92l60 -202l-196 -59q271 -302 271 -547v-161q0 -210 -127 -343.5t-345 -133.5h-23q-197 0 -335.5 138 t-138.5 339zM340 452q0 -112 77 -189.5t187 -77.5h23q61 0 108 16t75.5 42t46.5 62t25 71.5t7 75.5v28q0 43 -15 84t-45 77t-82.5 58t-119.5 22h-23q-126 0 -195 -69.5t-69 -171.5v-28z" />
<glyph unicode="&#xf1;" d="M130 0v1024h210v-72q124 97 264 97h23q223 0 347.5 -103.5t124.5 -277.5v-668h-210v668q0 171 -262 171h-23q-69 0 -133 -52.5t-97.5 -113.5t-33.5 -100v-573h-210zM261 1296l17 26q77 118 188 118h16q99 0 161 -55l19 -17q4 -4 24.5 -11t36.5 -7h17q13 0 31 12.5 t32 36.5l14 24l130 -76l-14 -24q-31 -53 -79.5 -83.5t-81.5 -34.5l-32 -5h-17q-45 0 -90.5 17t-70.5 39l-18 16q-20 18 -62 18h-16q-30 0 -62 -50l-17 -26z" />
<glyph unicode="&#xf2;" d="M130 484v74q0 221 118 355.5t339 134.5h53q221 0 340 -134.5t119 -354.5v-76q0 -109 -28.5 -200.5t-84 -161t-145 -108t-205.5 -38.5h-47q-114 0 -203 39.5t-144.5 109.5t-83.5 161.5t-28 198.5zM340 484q0 -299 249 -299h47q122 0 187.5 70.5t65.5 227.5v76 q0 279 -249 279h-53q-247 0 -247 -280v-74zM364 1318l140 135l258 -272l-140 -135z" />
<glyph unicode="&#xf3;" d="M130 484v74q0 221 118 355.5t339 134.5h53q221 0 340 -134.5t119 -354.5v-76q0 -109 -28.5 -200.5t-84 -161t-145 -108t-205.5 -38.5h-47q-114 0 -203 39.5t-144.5 109.5t-83.5 161.5t-28 198.5zM340 484q0 -299 249 -299h47q122 0 187.5 70.5t65.5 227.5v76 q0 279 -249 279h-53q-247 0 -247 -280v-74zM502 1181l258 272l140 -135l-258 -272z" />
<glyph unicode="&#xf4;" d="M130 484v74q0 221 118 355.5t339 134.5h53q221 0 340 -134.5t119 -354.5v-76q0 -109 -28.5 -200.5t-84 -161t-145 -108t-205.5 -38.5h-47q-114 0 -203 39.5t-144.5 109.5t-83.5 161.5t-28 198.5zM338 1295l204 112h172l204 -112l-72 -132l-218 120l-218 -120zM340 484 q0 -299 249 -299h47q122 0 187.5 70.5t65.5 227.5v76q0 279 -249 279h-53q-247 0 -247 -280v-74z" />
<glyph unicode="&#xf5;" d="M130 484v74q0 221 118 355.5t339 134.5h53q221 0 340 -134.5t119 -354.5v-76q0 -109 -28.5 -200.5t-84 -161t-145 -108t-205.5 -38.5h-47q-114 0 -203 39.5t-144.5 109.5t-83.5 161.5t-28 198.5zM271 1294l17 26q77 118 188 118h16q99 0 161 -55l19 -17q4 -4 24.5 -11 t36.5 -7h17q13 0 31 12.5t32 36.5l14 24l130 -76l-14 -24q-31 -53 -79.5 -83.5t-81.5 -34.5l-32 -5h-17q-45 0 -90.5 17t-70.5 39l-18 16q-20 18 -62 18h-16q-30 0 -62 -50l-17 -26zM340 484q0 -299 249 -299h47q122 0 187.5 70.5t65.5 227.5v76q0 279 -249 279h-53 q-247 0 -247 -280v-74z" />
<glyph unicode="&#xf6;" d="M130 484v74q0 221 118 355.5t339 134.5h53q221 0 340 -134.5t119 -354.5v-76q0 -109 -28.5 -200.5t-84 -161t-145 -108t-205.5 -38.5h-47q-114 0 -203 39.5t-144.5 109.5t-83.5 161.5t-28 198.5zM224 1256q0 66 44.5 107.5t102.5 41.5q62 0 105 -44.5t43 -104.5 q0 -62 -43.5 -108.5t-103.5 -46.5t-104 45.5t-44 109.5zM340 484q0 -299 249 -299h47q122 0 187.5 70.5t65.5 227.5v76q0 279 -249 279h-53q-247 0 -247 -280v-74zM737 1256q0 63 43.5 106t103.5 43q57 0 101.5 -42t44.5 -107q0 -66 -44.5 -110.5t-101.5 -44.5 q-59 0 -103 46t-44 109z" />
<glyph unicode="&#xf7;" d="M204 495v210h822v-210h-822zM477 243q0 52 43 98t105 46t103 -45.5t41 -98.5q0 -57 -41 -102t-103 -45q-61 0 -104.5 46t-43.5 101zM477 960q0 52 42 99.5t106 47.5q60 0 102 -46t42 -101t-42 -101t-102 -46q-64 0 -106 47.5t-42 99.5z" />
<glyph unicode="&#xf8;" d="M145 12l92 133q-81 125 -81 329v84q0 109 24 195t64 140.5t96.5 90t117 50t129.5 14.5h53q110 0 196 -36l74 107l172 -120l-84 -122q79 -121 79 -318v-86q0 -112 -24.5 -199.5t-65.5 -142.5t-98.5 -91t-119.5 -50.5t-133 -14.5h-47q-107 0 -190 35l-82 -118zM366 474 q0 -78 11 -126l334 483q-31 7 -71 7h-53q-115 0 -168 -63.5t-53 -216.5v-84zM524 191q30 -6 65 -6h47q120 0 175.5 64t55.5 224v86q0 68 -10 114z" />
<glyph unicode="&#xf9;" d="M130 378v646h210v-646q0 -40 10 -72t34.5 -60.5t73 -44.5t118.5 -16h25q50 0 97 25t80 61.5t59 78.5t38.5 76t13.5 54v544h210v-1024h-210v93q-141 -118 -288 -118h-25q-114 0 -202 33t-140 90t-78 127.5t-26 152.5zM353 1318l140 135l258 -272l-140 -135z" />
<glyph unicode="&#xfa;" d="M130 378v646h210v-646q0 -40 10 -72t34.5 -60.5t73 -44.5t118.5 -16h25q50 0 97 25t80 61.5t59 78.5t38.5 76t13.5 54v544h210v-1024h-210v93q-141 -118 -288 -118h-25q-114 0 -202 33t-140 90t-78 127.5t-26 152.5zM490 1181l258 272l140 -135l-258 -272z" />
<glyph unicode="&#xfb;" d="M130 378v646h210v-646q0 -40 10 -72t34.5 -60.5t73 -44.5t118.5 -16h25q50 0 97 25t80 61.5t59 78.5t38.5 76t13.5 54v544h210v-1024h-210v93q-141 -118 -288 -118h-25q-114 0 -202 33t-140 90t-78 127.5t-26 152.5zM326 1295l204 112h172l204 -112l-72 -132l-218 120 l-218 -120z" />
<glyph unicode="&#xfc;" d="M130 378v646h210v-646q0 -40 10 -72t34.5 -60.5t73 -44.5t118.5 -16h25q50 0 97 25t80 61.5t59 78.5t38.5 76t13.5 54v544h210v-1024h-210v93q-141 -118 -288 -118h-25q-114 0 -202 33t-140 90t-78 127.5t-26 152.5zM212 1256q0 66 44.5 107.5t102.5 41.5q62 0 105 -44.5 t43 -104.5q0 -62 -43.5 -108.5t-103.5 -46.5t-104 45.5t-44 109.5zM725 1256q0 63 43.5 106t103.5 43q57 0 101.5 -42t44.5 -107q0 -66 -44.5 -110.5t-101.5 -44.5q-59 0 -103 46t-44 109z" />
<glyph unicode="&#xfd;" d="M83 1024h246l401 -660l226 660h222l-399 -1166q-41 -121 -127.5 -189t-207.5 -68h-27q-65 0 -146.5 37.5t-146.5 95.5l-19 17l138 158l30 -26q35 -30 76 -51t68 -21h27q97 0 135 111l63 184zM510 1181l258 272l140 -135l-258 -272z" />
<glyph unicode="&#xfe;" d="M130 -385v1785h210v-420q116 69 258 69h38q118 0 208 -39t145 -109.5t82.5 -163t27.5 -205.5v-37q0 -114 -28 -207t-83.5 -164t-146.5 -110t-211 -39h-27q-147 0 -263 65v-425h-210zM340 393q0 -93 73 -150.5t190 -57.5h27q127 0 193 71.5t66 238.5v37q0 165 -64.5 236 t-188.5 71h-38q-118 0 -188 -66.5t-70 -154.5v-225z" />
<glyph unicode="&#xff;" d="M83 1024h246l401 -660l226 660h222l-399 -1166q-41 -121 -127.5 -189t-207.5 -68h-27q-65 0 -146.5 37.5t-146.5 95.5l-19 17l138 158l30 -26q35 -30 76 -51t68 -21h27q97 0 135 111l63 184zM232 1256q0 66 44.5 107.5t102.5 41.5q62 0 105 -44.5t43 -104.5 q0 -62 -43.5 -108.5t-103.5 -46.5t-104 45.5t-44 109.5zM745 1256q0 63 43.5 106t103.5 43q57 0 101.5 -42t44.5 -107q0 -66 -44.5 -110.5t-101.5 -44.5q-59 0 -103 46t-44 109z" />
<glyph unicode="&#x152;" d="M130 300v790q0 76 24 135t58.5 91t79.5 52t80.5 26t68.5 6h28q56 0 86 -14v14h544v-210h-334v-368h175v-210h-175v-402h334v-210h-544v12q-39 -12 -86 -12h-28q-73 0 -133.5 27t-98.5 70.5t-58.5 96t-20.5 106.5zM340 300q0 -10 3.5 -22.5t13 -29t31.5 -27.5t53 -11h28 q33 0 54 19.5t26.5 38t5.5 32.5v790q0 55 -27.5 77.5t-58.5 22.5h-28q-45 0 -73 -28t-28 -72v-790z" />
<glyph unicode="&#x153;" d="M130 268v489q0 124 81 208t217 84q110 0 188 -65q78 65 189 65q136 0 215 -83.5t79 -208.5v-322h-378v-167q0 -16 4.5 -32t25 -33.5t54.5 -17.5q84 0 84 83h210q0 -125 -80 -209t-214 -84q-110 0 -189 66q-79 -66 -188 -66q-138 0 -218 84.5t-80 208.5zM340 268 q0 -83 88 -83q26 0 44 10.5t25.5 25.5t10.5 26.5t3 20.5v489q0 9 -3 20.5t-10.5 26.5t-25.5 25t-44 10q-88 0 -88 -82v-489zM721 645h168v112q0 82 -84 82q-26 0 -44.5 -10t-26 -25t-10.5 -26.5t-3 -20.5v-112z" />
<glyph unicode="&#x178;" d="M73 1400h233l310 -645l311 645h233l-439 -911v-514h-210v514zM213 1594q0 66 44.5 107.5t102.5 41.5q62 0 105 -44.5t43 -104.5q0 -62 -43.5 -108.5t-103.5 -46.5t-104 45.5t-44 109.5zM726 1594q0 63 43.5 106t103.5 43q57 0 101.5 -42t44.5 -107q0 -66 -44.5 -110.5 t-101.5 -44.5q-59 0 -103 46t-44 109z" />
<glyph unicode="&#x2c6;" d="M326 1526l204 112h172l204 -112l-72 -132l-218 120l-218 -120z" />
<glyph unicode="&#x2dc;" d="M273 1543l17 26q77 118 188 118h16q99 0 161 -55l19 -17q4 -4 24.5 -11t36.5 -7h17q13 0 31 12.5t32 36.5l14 24l130 -76l-14 -24q-31 -53 -79.5 -83.5t-81.5 -34.5l-32 -5h-17q-45 0 -90.5 17t-70.5 39l-18 16q-20 18 -62 18h-16q-30 0 -62 -50l-17 -26z" />
<glyph unicode="&#x2000;" horiz-adv-x="895" />
<glyph unicode="&#x2001;" horiz-adv-x="1791" />
<glyph unicode="&#x2002;" horiz-adv-x="895" />
<glyph unicode="&#x2003;" horiz-adv-x="1791" />
<glyph unicode="&#x2004;" horiz-adv-x="597" />
<glyph unicode="&#x2005;" horiz-adv-x="447" />
<glyph unicode="&#x2006;" horiz-adv-x="298" />
<glyph unicode="&#x2007;" horiz-adv-x="298" />
<glyph unicode="&#x2008;" horiz-adv-x="223" />
<glyph unicode="&#x2009;" horiz-adv-x="358" />
<glyph unicode="&#x200a;" horiz-adv-x="99" />
<glyph unicode="&#x2010;" d="M234 489v210h762v-210h-762z" />
<glyph unicode="&#x2011;" d="M234 489v210h762v-210h-762z" />
<glyph unicode="&#x2012;" d="M234 489v210h762v-210h-762z" />
<glyph unicode="&#x2013;" horiz-adv-x="1491" d="M234 489v210h1024v-210h-1024z" />
<glyph unicode="&#x2014;" horiz-adv-x="2515" d="M234 489v210h2048v-210h-2048z" />
<glyph unicode="&#x2018;" d="M420 1129q0 354 341 390l20 -74q-45 -17 -83.5 -49t-38.5 -70q0 -17 11.5 -40.5t25.5 -27.5q38 -11 75.5 -49t37.5 -80q0 -79 -54.5 -137.5t-139.5 -58.5q-84 0 -139.5 57.5t-55.5 138.5z" />
<glyph unicode="&#x2019;" d="M420 1323q0 79 54.5 137.5t139.5 58.5q84 0 139.5 -57.5t55.5 -138.5q0 -354 -341 -390l-20 74q45 17 83.5 49t38.5 70q0 17 -11.5 40.5t-25.5 27.5q-38 11 -75.5 49t-37.5 80z" />
<glyph unicode="&#x201a;" d="M420 259q0 79 54.5 137.5t139.5 58.5q84 0 139.5 -57.5t55.5 -138.5q0 -354 -341 -390l-20 74q45 17 83.5 49t38.5 70q0 17 -11.5 40.5t-25.5 27.5q-38 11 -75.5 49t-37.5 80z" />
<glyph unicode="&#x201c;" d="M162 1129q0 354 341 390l20 -74q-45 -17 -83.5 -49t-38.5 -70q0 -17 11.5 -40.5t25.5 -27.5q38 -11 75.5 -49t37.5 -80q0 -79 -54.5 -137.5t-139.5 -58.5q-84 0 -139.5 57.5t-55.5 138.5zM590 1129q0 354 341 390l20 -74q-45 -17 -83.5 -49t-38.5 -70q0 -17 11.5 -40.5 t25.5 -27.5q38 -11 75.5 -49t37.5 -80q0 -79 -54.5 -137.5t-139.5 -58.5q-84 0 -139.5 57.5t-55.5 138.5z" />
<glyph unicode="&#x201d;" d="M205 1323q0 79 54.5 137.5t139.5 58.5q84 0 139.5 -57.5t55.5 -138.5q0 -354 -341 -390l-20 74q45 17 83.5 49t38.5 70q0 17 -11.5 40.5t-25.5 27.5q-38 11 -75.5 49t-37.5 80zM635 1323q0 79 54.5 137.5t139.5 58.5q84 0 139.5 -57.5t55.5 -138.5q0 -354 -341 -390 l-20 74q45 17 83.5 49t38.5 70q0 17 -11.5 40.5t-25.5 27.5q-38 11 -75.5 49t-37.5 80z" />
<glyph unicode="&#x201e;" d="M235 290q0 79 54.5 137.5t139.5 58.5q84 0 139.5 -57.5t55.5 -138.5q0 -354 -341 -390l-20 74q45 17 83.5 49t38.5 70q0 17 -11.5 40.5t-25.5 27.5q-38 11 -75.5 49t-37.5 80zM665 290q0 79 54.5 137.5t139.5 58.5q84 0 139.5 -57.5t55.5 -138.5q0 -354 -341 -390l-20 74 q45 17 83.5 49t38.5 70q0 17 -11.5 40.5t-25.5 27.5q-38 11 -75.5 49t-37.5 80z" />
<glyph unicode="&#x2022;" d="M404 660q0 83 64 150t147 67t147 -67t64 -150q0 -85 -63 -154t-148 -69t-148 70t-63 153z" />
<glyph unicode="&#x2026;" d="M102 113q0 40 27.5 70t67.5 30t67.5 -31t27.5 -69q0 -40 -27.5 -70.5t-67.5 -30.5t-67.5 30t-27.5 71zM521 113q0 40 27 70t67 30q41 0 68.5 -31t27.5 -69q0 -40 -28 -70.5t-68 -30.5q-39 0 -66.5 30t-27.5 71zM938 113q0 40 27.5 70t67.5 30q41 0 68.5 -31t27.5 -69 q0 -40 -28 -70.5t-68 -30.5q-39 0 -67 30t-28 71z" />
<glyph unicode="&#x202f;" horiz-adv-x="358" />
<glyph unicode="&#x2039;" d="M272 479v230l687 450v-251l-480 -314l480 -315v-251z" />
<glyph unicode="&#x203a;" d="M272 27v251l481 316l-481 315v251l687 -450v-232z" />
<glyph unicode="&#x205f;" horiz-adv-x="447" />
<glyph unicode="&#x20ac;" d="M100 429v210h114v90h-66v210h66v121q0 46 14.5 94t48.5 97.5t83.5 87.5t125.5 62t168 24h26q173 0 268.5 -84t142.5 -241l-202 -60q-29 98 -71.5 136.5t-137.5 38.5h-26q-57 0 -101.5 -13.5t-67.5 -32t-38 -42t-19 -39.5t-4 -28v-121h400v-210h-400v-90h223v-210h-223 v-52q0 -92 53.5 -142t177.5 -50h25q75 0 115.5 36t76.5 131l196 -74q-19 -52 -40.5 -93t-54.5 -81.5t-72.5 -67.5t-96 -44t-124.5 -17h-25q-114 0 -201 33t-138 90.5t-76.5 127.5t-25.5 151v52h-114z" />
<glyph unicode="&#x2122;" d="M90 1205v195h644l111 -395l110 395h184v-934h-171v195l-57 -142h-128l-63 127v-180h-180v739h-125v-739h-190v739h-135z" />
<glyph unicode="&#x25fc;" horiz-adv-x="1025" d="M0 0v1025h1025v-1025h-1025z" />
</font>
</defs>
</svg>
